# This file uses centimeters as units for non-parametric coordinates.

mtllib obstacle_small_chimney_test.mtl
g default
v -7.447238 30.129021 47.902929
v -5.034963 30.095238 47.902929
v -7.447238 34.000132 47.902929
v -5.034963 34.000132 47.902929
v -7.447238 34.000132 45.490652
v -5.034963 34.000132 45.490652
v -7.447238 30.129021 45.490652
v -5.034963 30.095238 45.490652
v -7.085989 34.000132 47.541678
v -5.396211 34.000132 47.541678
v -5.396211 34.000132 45.851903
v -7.085989 34.000132 45.851903
v -7.085989 32.831480 47.541678
v -5.396211 32.831480 47.541678
v -5.396211 32.831480 45.851903
v -7.085989 32.831480 45.851903
v -7.447238 33.476764 47.902929
v -5.034963 33.476764 47.902929
v -5.034963 33.476764 45.490652
v -7.447238 33.476764 45.490652
v -7.727019 33.476764 48.182707
v -4.755181 33.476764 48.182707
v -4.755181 34.000132 48.182707
v -7.727019 34.000132 48.182707
v -7.727019 34.000132 45.210870
v -4.755181 34.000132 45.210870
v -4.755181 33.476764 45.210870
v -7.727019 33.476764 45.210870
v -7.447238 32.099034 47.902929
v -5.034963 32.099034 47.902929
v -5.034963 32.099034 45.490652
v -7.447238 32.099034 45.490652
v -7.884319 30.129021 48.340008
v -4.597880 30.095238 48.340008
v -4.597880 32.099034 48.340008
v -7.884319 32.099034 48.340008
v -4.597880 30.095238 45.053569
v -4.597880 32.099034 45.053569
v -7.884319 32.099034 45.053569
v -7.884319 30.129021 45.053569
vt 0.375000 0.000000
vt 0.625000 0.000000
vt 0.375000 0.250000
vt 0.625000 0.250000
vt 0.375000 0.500000
vt 0.625000 0.500000
vt 0.375000 0.750000
vt 0.625000 0.750000
vt 0.375000 1.000000
vt 0.625000 1.000000
vt 0.875000 0.000000
vt 0.875000 0.250000
vt 0.125000 0.000000
vt 0.125000 0.250000
vt 0.375000 0.250000
vt 0.625000 0.250000
vt 0.625000 0.500000
vt 0.375000 0.500000
vt 0.375000 0.250000
vt 0.625000 0.250000
vt 0.625000 0.500000
vt 0.375000 0.500000
vt 0.375000 0.195760
vt 0.625000 0.195760
vt 0.625000 0.554240
vt 0.875000 0.195760
vt 0.125000 0.195760
vt 0.375000 0.554240
vt 0.375000 0.195760
vt 0.625000 0.195760
vt 0.625000 0.250000
vt 0.375000 0.250000
vt 0.375000 0.500000
vt 0.625000 0.500000
vt 0.625000 0.554240
vt 0.375000 0.554240
vt 0.875000 0.195760
vt 0.875000 0.250000
vt 0.125000 0.195760
vt 0.125000 0.250000
vt 0.375000 0.052977
vt 0.625000 0.052977
vt 0.625000 0.697023
vt 0.875000 0.052977
vt 0.125000 0.052977
vt 0.375000 0.697023
vt 0.375000 0.000000
vt 0.625000 0.000000
vt 0.625000 0.052977
vt 0.375000 0.052977
vt 0.875000 0.000000
vt 0.875000 0.052977
vt 0.375000 0.697023
vt 0.625000 0.697023
vt 0.625000 0.750000
vt 0.375000 0.750000
vt 0.125000 0.000000
vt 0.125000 0.052977
vn 0.000000 0.000000 1.000000
vn 0.000000 0.000000 1.000000
vn 0.000000 0.000000 1.000000
vn 0.000000 0.000000 1.000000
vn 0.000000 1.000000 0.000000
vn 0.000000 1.000000 0.000000
vn 0.000000 1.000000 0.000000
vn 0.000000 1.000000 0.000000
vn 0.000000 0.000000 -1.000000
vn 0.000000 0.000000 -1.000000
vn 0.000000 0.000000 -1.000000
vn 0.000000 0.000000 -1.000000
vn -0.010846 -0.999941 0.000000
vn -0.010846 -0.999941 0.000000
vn -0.010846 -0.999941 -0.000001
vn -0.010846 -0.999941 -0.000001
vn 1.000000 0.000000 0.000000
vn 1.000000 0.000000 0.000000
vn 1.000000 0.000000 0.000000
vn 1.000000 0.000000 0.000000
vn -1.000000 0.000000 0.000000
vn -1.000000 0.000000 0.000000
vn -1.000000 0.000000 0.000000
vn -1.000000 0.000000 0.000000
vn 0.000000 1.000000 -0.000002
vn 0.000000 1.000000 -0.000002
vn 0.000000 1.000000 -0.000002
vn 0.000000 1.000000 -0.000002
vn 0.000000 1.000000 0.000002
vn 0.000000 1.000000 0.000002
vn 0.000000 1.000000 0.000002
vn 0.000000 1.000000 0.000002
vn 0.000000 0.000000 -1.000000
vn 0.000000 0.000000 -1.000000
vn 0.000000 0.000000 -1.000000
vn 0.000000 0.000000 -1.000000
vn -1.000000 0.000000 0.000000
vn -1.000000 0.000000 0.000000
vn -1.000000 0.000000 0.000000
vn -1.000000 0.000000 0.000000
vn 0.000000 0.000000 1.000000
vn 0.000000 0.000000 1.000000
vn 0.000000 0.000000 1.000000
vn 0.000000 0.000000 1.000000
vn 1.000000 0.000000 0.000000
vn 1.000000 0.000000 0.000000
vn 1.000000 0.000000 0.000000
vn 1.000000 0.000000 0.000000
vn 0.000000 0.000000 1.000000
vn 0.000000 0.000000 1.000000
vn 0.000000 0.000000 1.000000
vn 0.000000 0.000000 1.000000
vn 1.000000 0.000000 0.000000
vn 1.000000 0.000000 0.000000
vn 1.000000 0.000000 0.000000
vn 1.000000 0.000000 0.000000
vn 0.000000 0.000000 -1.000000
vn 0.000000 0.000000 -1.000000
vn 0.000000 0.000000 -1.000000
vn 0.000000 0.000000 -1.000000
vn -1.000000 0.000000 0.000000
vn -1.000000 0.000000 0.000000
vn -1.000000 0.000000 0.000000
vn -1.000000 0.000000 0.000000
vn 0.000000 -1.000000 -0.000002
vn 0.000000 -1.000000 -0.000002
vn 0.000000 -1.000000 -0.000002
vn 0.000000 -1.000000 -0.000002
vn 0.000000 1.000000 0.000007
vn 0.000000 1.000000 0.000007
vn 0.000000 1.000000 0.000007
vn 0.000000 1.000000 0.000007
vn 0.000000 1.000000 -0.000009
vn 0.000000 1.000000 -0.000009
vn 0.000000 1.000000 -0.000009
vn 0.000000 1.000000 -0.000009
vn 0.000000 -1.000000 0.000000
vn 0.000000 -1.000000 0.000000
vn 0.000000 -1.000000 0.000000
vn 0.000000 -1.000000 0.000000
vn 0.000000 -1.000000 0.000000
vn 0.000000 -1.000000 0.000000
vn 0.000000 -1.000000 0.000000
vn 0.000000 -1.000000 0.000000
vn 0.000000 1.000000 0.000000
vn 0.000000 1.000000 0.000000
vn 0.000000 1.000000 0.000000
vn 0.000000 1.000000 0.000000
vn 0.000000 -1.000000 0.000000
vn 0.000000 -1.000000 0.000000
vn 0.000000 -1.000000 0.000000
vn 0.000000 -1.000000 0.000000
vn 0.000000 1.000000 0.000000
vn 0.000000 1.000000 0.000000
vn 0.000000 1.000000 0.000000
vn 0.000000 1.000000 0.000000
vn 0.000000 0.000000 1.000000
vn 0.000000 0.000000 1.000000
vn 0.000000 0.000000 1.000000
vn 0.000000 0.000000 1.000000
vn 1.000000 0.000000 0.000000
vn 1.000000 0.000000 0.000000
vn 1.000000 0.000000 0.000000
vn 1.000000 0.000000 0.000000
vn 0.000000 0.000000 -1.000000
vn 0.000000 0.000000 -1.000000
vn 0.000000 0.000000 -1.000000
vn 0.000000 0.000000 -1.000000
vn -1.000000 0.000000 0.000000
vn -1.000000 0.000000 0.000000
vn -1.000000 0.000000 0.000000
vn -1.000000 0.000000 0.000000
vn -0.005928 -0.999982 -0.000002
vn -0.005928 -0.999982 -0.000002
vn 0.000000 1.000000 0.000000
vn 0.000000 1.000000 0.000000
vn 0.000000 1.000000 0.000000
vn 0.000000 1.000000 0.000000
vn -0.005928 -0.999982 0.000001
vn 0.000000 1.000000 0.000002
vn 0.000000 1.000000 0.000002
vn 0.000000 1.000000 0.000002
vn 0.000000 1.000000 0.000002
vn -0.005928 -0.999982 0.000001
s off
g pCube3 group6
usemtl initialShadingGroup
f 21/29/1 22/30/2 23/31/3 24/32/4
f 13/19/5 14/20/6 15/21/7 16/22/8
f 25/33/9 26/34/10 27/35/11 28/36/12
s 1
f 7/7/13 8/8/14 2/10/15 1/9/16
s off
f 22/30/17 27/37/18 26/38/19 23/31/20
f 28/39/21 21/29/22 24/32/23 25/40/24
s 2
f 3/3/25 4/4/26 10/16/27 9/15/28
f 4/4/26 6/6/29 11/17/30 10/16/27
f 6/6/29 5/5/31 12/18/32 11/17/30
f 5/5/31 3/3/25 9/15/28 12/18/32
s off
f 9/15/33 10/16/34 14/20/35 13/19/36
f 10/16/37 11/17/38 15/21/39 14/20/40
f 11/17/41 12/18/42 16/22/43 15/21/44
f 12/18/45 9/15/46 13/19/47 16/22/48
f 29/41/49 30/42/50 18/24/51 17/23/52
f 30/42/53 31/44/54 19/26/55 18/24/56
f 20/28/57 19/25/58 31/43/59 32/46/60
f 32/45/61 29/41/62 17/23/63 20/27/64
f 17/23/65 18/24/66 22/30/67 21/29/68
f 4/4/69 3/3/70 24/32/71 23/31/72
f 5/5/73 6/6/74 26/34/75 25/33/76
f 19/25/77 20/28/78 28/36/79 27/35/80
f 18/24/81 19/26/82 27/37/83 22/30/84
f 6/12/85 4/4/86 23/31/87 26/38/88
f 20/27/89 17/23/90 21/29/91 28/39/92
f 3/3/93 5/14/94 25/40/95 24/32/96
f 33/47/97 34/48/98 35/49/99 36/50/100
f 34/48/101 37/51/102 38/52/103 35/49/104
f 39/53/105 38/54/106 37/55/107 40/56/108
f 40/57/109 33/47/110 36/50/111 39/58/112
s 1
f 1/1/16 2/2/15 34/48/113 33/47/114
s 3
f 30/42/115 29/41/116 36/50/117 35/49/118
s 1
f 2/2/15 8/11/14 37/51/119 34/48/113
s 3
f 31/44/120 30/42/115 35/49/118 38/52/121
f 32/46/122 31/43/120 38/54/121 39/53/123
s 1
f 8/8/14 7/7/13 40/56/124 37/55/119
f 7/13/13 1/1/16 33/47/114 40/57/124
s 3
f 29/41/116 32/45/122 39/58/123 36/50/117
