# This file uses centimeters as units for non-parametric coordinates.

mtllib Big_roof.mtl
g default
v -2.792517 -0.987155 34.860477
v -3.498695 -0.987155 34.860477
v -3.376566 -0.863321 34.860477
v -2.914646 -0.863321 34.860477
v -2.914646 -0.424779 34.860477
v -2.792517 -0.430837 34.860477
v -3.498695 -0.430837 34.860477
v -3.376566 -0.424779 34.860477
v -3.376566 -0.863321 72.356888
v -3.376566 -0.424779 72.356888
v -2.914646 -0.863321 72.356888
v -2.914646 -0.424779 72.356888
v -2.792517 -0.430837 72.356888
v -2.792517 -0.987155 72.356888
v -3.498695 -0.987155 72.356888
v -3.498695 -0.430837 72.356888
v -3.100967 -0.523056 73.056793
v 0.053508 -0.479861 73.056793
v 0.053509 -0.318944 73.056793
v -3.100967 -0.365969 73.056793
v 3.207985 -0.523056 73.056793
v 3.207985 -0.365969 73.056793
v -3.100967 -0.365969 -0.155599
v 0.053509 -0.367434 -0.155599
v 0.053509 -0.528352 -0.155599
v -3.100967 -0.523056 -0.155599
v 3.207985 -0.523056 -0.155599
v 0.053509 -0.367434 -0.155599
v 3.207985 -0.365969 -0.155599
v -2.620654 -0.144575 72.893333
v -0.950834 -0.067982 72.893333
v -0.950834 -0.067982 0.007856
v -2.620654 -0.144575 0.007856
v 1.057855 -0.067982 72.893333
v 1.057855 -0.067982 0.007856
v 2.727675 -0.144575 72.893333
v 2.727675 -0.144575 0.007856
v 2.727675 -5.564846 72.893333
v 0.053509 -0.228898 72.893333
v -2.620654 -5.564846 72.893333
v -2.620654 -0.301663 72.893333
v 2.727675 -0.301663 72.893333
v 2.727675 -5.564846 0.007856
v 0.053509 -0.228898 0.007856
v 2.727675 -0.301663 0.007856
v -2.620654 -0.301663 0.007856
v -2.620654 -5.564846 0.007856
v -2.620654 -0.144575 39.344074
v -0.950834 -0.067982 39.344074
v 1.057855 -0.067982 39.344074
v 2.727675 -0.144575 39.344074
v -3.100967 -0.365969 39.344074
v -3.100967 -0.523056 39.344074
v 3.207985 -0.365969 39.344074
v 3.207985 -0.523056 39.344074
v 3.524458 -0.987155 34.860477
v 2.818279 -0.987155 34.860477
v 2.940409 -0.863321 34.860477
v 3.402328 -0.863321 34.860477
v 3.402328 -0.424779 34.860477
v 3.524458 -0.430837 34.860477
v 2.818279 -0.430837 34.860477
v 2.940409 -0.424779 34.860477
v 2.940409 -0.863321 72.356888
v 2.940409 -0.424779 72.356888
v 3.402328 -0.863321 72.356888
v 3.402328 -0.424779 72.356888
v 3.524458 -0.430837 72.356888
v 3.524458 -0.987155 72.356888
v 2.818279 -0.987155 72.356888
v 2.818279 -0.430837 72.356888
v -2.792517 -0.987155 0.225628
v -3.498695 -0.987155 0.225628
v -3.376566 -0.863321 0.225628
v -2.914646 -0.863321 0.225628
v -2.914646 -0.424779 0.225628
v -2.792517 -0.430837 0.225628
v -3.498695 -0.430837 0.225628
v -3.376566 -0.424779 0.225628
v -3.376566 -0.863321 34.803165
v -3.376566 -0.424779 34.803165
v -2.914646 -0.863321 34.803165
v -2.914646 -0.424779 34.803165
v -2.792517 -0.430837 34.803165
v -2.792517 -0.987155 34.803165
v -3.498695 -0.987155 34.803165
v -3.498695 -0.430837 34.803165
v 3.524458 -0.987155 0.225628
v 2.818279 -0.987155 0.225628
v 2.940409 -0.863321 0.225628
v 3.402328 -0.863321 0.225628
v 3.402328 -0.424779 0.225628
v 3.524458 -0.430837 0.225628
v 2.818279 -0.430837 0.225628
v 2.940409 -0.424779 0.225628
v 2.940409 -0.863321 34.803165
v 2.940409 -0.424779 34.803165
v 3.402328 -0.863321 34.803165
v 3.402328 -0.424779 34.803165
v 3.524458 -0.430837 34.803165
v 3.524458 -0.987155 34.803165
v 2.818279 -0.987155 34.803165
v 2.818279 -0.430837 34.803165
vt 0.983934 0.118842
vt 0.959057 0.118842
vt 0.963359 0.114481
vt 0.979632 0.114481
vt 0.979632 0.099031
vt 0.983934 0.099247
vt 0.959057 0.099247
vt 0.963359 0.099031
vt 0.243010 0.658488
vt 0.243010 0.009162
vt 0.258457 0.009162
vt 0.258457 0.658488
vt 0.707532 0.912789
vt 0.239255 0.912789
vt 0.239255 0.901056
vt 0.707532 0.901056
vt 0.239255 0.923929
vt 0.707532 0.923929
vt 0.239255 0.927035
vt 0.707532 0.927035
vt 0.707532 0.941167
vt 0.239255 0.941167
vt 0.282360 0.658488
vt 0.282360 0.009162
vt 0.262763 0.009162
vt 0.262763 0.658488
vt 0.414883 0.762556
vt 0.334805 0.761601
vt 0.414907 0.758569
vt 0.334831 0.757514
vt 0.254727 0.761517
vt 0.254755 0.757529
vt 0.251637 0.883105
vt 0.331713 0.883090
vt 0.251609 0.887092
vt 0.331687 0.887177
vt 0.411765 0.888131
vt 0.411789 0.884144
vt 0.331713 0.883090
vt 0.225622 0.993641
vt 0.183192 0.993641
vt 0.225675 0.029029
vt 0.183213 0.029029
vt 0.011872 0.013967
vt 0.007872 0.013967
vt 0.011872 0.943910
vt 0.007872 0.943910
vt 0.049976 0.943494
vt 0.045976 0.943494
vt 0.049976 0.013555
vt 0.045977 0.013555
vt 0.132210 0.993641
vt 0.132189 0.029029
vt 0.089780 0.993641
vt 0.089727 0.029029
vt 0.701975 0.891929
vt 0.566432 0.824001
vt 0.701975 0.756070
vt 0.568282 0.756070
vt 0.568282 0.891929
vt 0.701974 0.756071
vt 0.566433 0.823998
vt 0.568280 0.756071
vt 0.568280 0.891928
vt 0.701974 0.891928
vt 0.402767 0.751494
vt 0.360379 0.749535
vt 0.266976 0.750594
vt 0.309388 0.749232
vt 0.263858 0.876170
vt 0.306270 0.874808
vt 0.399649 0.877070
vt 0.357260 0.875111
vt 0.025301 0.013965
vt 0.025301 0.939757
vt 0.032548 0.013555
vt 0.032548 0.939341
vt 0.225759 0.993641
vt 0.183247 0.993641
vt 0.225675 0.182762
vt 0.183212 0.182762
vt 0.132152 0.993641
vt 0.132187 0.182762
vt 0.089639 0.993641
vt 0.089727 0.182762
vt 0.011872 0.943909
vt 0.011872 0.013966
vt 0.025301 0.939759
vt 0.025301 0.013966
vt 0.007872 0.013966
vt 0.007872 0.943909
vt 0.032548 0.013554
vt 0.032548 0.939333
vt 0.045977 0.013553
vt 0.045977 0.943496
vt 0.049976 0.943496
vt 0.049976 0.013553
vt 0.983934 0.118842
vt 0.959057 0.118842
vt 0.979632 0.114481
vt 0.963359 0.114481
vt 0.983934 0.099247
vt 0.979632 0.099031
vt 0.959057 0.099247
vt 0.963359 0.099031
vt 0.243010 0.658488
vt 0.243010 0.009162
vt 0.258457 0.658488
vt 0.258457 0.009162
vt 0.707532 0.912789
vt 0.239255 0.912789
vt 0.707532 0.901056
vt 0.239255 0.901056
vt 0.239255 0.923929
vt 0.707532 0.923929
vt 0.239255 0.927035
vt 0.707532 0.927035
vt 0.707532 0.941167
vt 0.239255 0.941167
vt 0.262763 0.009162
vt 0.282360 0.009162
vt 0.262763 0.658488
vt 0.282360 0.658488
vt 0.983934 0.118842
vt 0.959057 0.118842
vt 0.979632 0.114481
vt 0.963359 0.114481
vt 0.983934 0.099247
vt 0.979632 0.099031
vt 0.959057 0.099247
vt 0.963359 0.099031
vt 0.243010 0.658488
vt 0.243010 0.009162
vt 0.258457 0.658488
vt 0.258457 0.009162
vt 0.707532 0.912789
vt 0.239255 0.912789
vt 0.707532 0.901056
vt 0.239255 0.901056
vt 0.239255 0.923929
vt 0.707532 0.923929
vt 0.239255 0.927035
vt 0.707532 0.927035
vt 0.707532 0.941167
vt 0.239255 0.941167
vt 0.262763 0.009162
vt 0.282360 0.009162
vt 0.262763 0.658488
vt 0.282360 0.658488
vt 0.983934 0.118842
vt 0.959057 0.118842
vt 0.979632 0.114481
vt 0.963359 0.114481
vt 0.983934 0.099247
vt 0.979632 0.099031
vt 0.959057 0.099247
vt 0.963359 0.099031
vt 0.243010 0.658488
vt 0.243010 0.009162
vt 0.258457 0.658488
vt 0.258457 0.009162
vt 0.707532 0.912789
vt 0.239255 0.912789
vt 0.707532 0.901056
vt 0.239255 0.901056
vt 0.239255 0.923929
vt 0.707532 0.923929
vt 0.239255 0.927035
vt 0.707532 0.927035
vt 0.707532 0.941167
vt 0.239255 0.941167
vt 0.262763 0.009162
vt 0.282360 0.009162
vt 0.262763 0.658488
vt 0.282360 0.658488
vn -0.000004 0.000000 -1.000000
vn 0.000004 0.000000 -1.000000
vn -0.000004 0.000000 -1.000000
vn -0.000004 0.000000 -1.000000
vn 0.000004 0.000000 -1.000000
vn 0.000004 0.000000 -1.000000
vn -0.000004 0.000000 -1.000000
vn -0.000004 0.000000 -1.000000
vn -0.000008 0.000000 -1.000000
vn -0.000008 0.000000 -1.000000
vn -0.000004 0.000000 -1.000000
vn -0.000008 0.000000 -1.000000
vn 0.000004 0.000000 -1.000000
vn 0.000008 0.000000 -1.000000
vn 0.000004 0.000000 -1.000000
vn 0.000004 0.000000 -1.000000
vn 0.000008 0.000000 -1.000000
vn 0.000008 0.000000 -1.000000
vn 1.000000 0.000000 0.000000
vn 1.000000 0.000000 0.000000
vn 0.962364 0.271762 0.000000
vn 0.962364 0.271762 0.000000
vn 1.000000 0.000000 0.000000
vn 0.962364 0.271762 0.000000
vn -0.688516 0.725221 0.000000
vn -0.688516 0.725221 0.000000
vn 0.000000 1.000000 0.000000
vn 0.000000 1.000000 0.000000
vn -0.688516 0.725221 0.000000
vn 0.000000 1.000000 0.000000
vn -0.962364 0.271762 0.000000
vn -0.688516 0.725221 0.000000
vn -0.962364 0.271762 0.000000
vn -0.962364 0.271762 0.000000
vn -0.688516 0.725221 0.000000
vn -0.688516 0.725221 0.000000
vn 0.977222 0.212220 0.000000
vn -0.962364 0.271762 0.000000
vn 0.977222 0.212220 0.000000
vn 0.977222 0.212220 0.000000
vn -0.962364 0.271762 0.000000
vn -0.962364 0.271762 0.000000
vn 1.000000 0.000000 0.000000
vn 1.000000 0.000000 0.000000
vn 0.977222 0.212220 0.000000
vn 0.977222 0.212220 0.000000
vn 1.000000 0.000000 0.000000
vn 0.977222 0.212220 0.000000
vn -0.977222 0.212220 0.000000
vn -1.000000 0.000000 0.000000
vn -0.977222 0.212220 0.000000
vn -0.977222 0.212220 0.000000
vn -1.000000 0.000000 0.000000
vn -1.000000 0.000000 0.000000
vn 0.962364 0.271762 0.000000
vn 0.962364 0.271762 0.000000
vn -0.977222 0.212220 0.000000
vn -0.977222 0.212220 0.000000
vn 0.962364 0.271762 0.000000
vn -0.977222 0.212220 0.000000
vn 0.000000 0.000000 1.000000
vn 0.000000 0.000000 1.000000
vn -0.004622 0.180351 0.983591
vn -0.004622 0.180351 0.983591
vn 0.000000 0.000000 1.000000
vn -0.000000 0.249240 0.968442
vn 0.000000 0.000000 1.000000
vn 0.004622 0.180352 0.983591
vn 0.000000 0.000000 1.000000
vn 0.000000 0.000000 1.000000
vn 0.004622 0.180352 0.983591
vn -0.000000 0.249240 0.968442
vn -0.002808 0.180315 -0.983605
vn -0.001998 0.128297 -0.991734
vn 0.000000 0.000000 -1.000000
vn 0.000000 0.000000 -1.000000
vn -0.001998 0.128297 -0.991734
vn 0.000000 0.000000 -1.000000
vn 0.000000 0.000000 -1.000000
vn 0.000000 0.000000 -1.000000
vn 0.002808 0.180316 -0.983605
vn 0.002808 0.180316 -0.983605
vn 0.000000 0.000000 -1.000000
vn 0.001998 0.128297 -0.991734
vn 0.000000 0.000000 -1.000000
vn -0.001998 0.128297 -0.991734
vn 0.001998 0.128297 -0.991734
vn -0.045821 0.998950 0.000000
vn -0.020817 0.999783 0.000000
vn -0.045821 0.998950 0.000000
vn -0.045821 0.998950 0.000000
vn -0.020817 0.999783 0.000000
vn -0.020817 0.999783 0.000000
vn 0.619283 0.785168 0.000000
vn 1.000000 0.000000 0.000000
vn 0.654626 0.755953 0.000000
vn 0.654626 0.755953 0.000000
vn 1.000000 0.000000 0.000000
vn 1.000000 0.000000 0.000000
vn -1.000000 0.000000 0.000000
vn -0.654686 0.755901 0.000000
vn -1.000000 0.000000 0.000000
vn -1.000000 0.000000 0.000000
vn -0.654686 0.755901 0.000000
vn -0.619280 0.785171 0.000000
vn -0.020817 0.999783 0.000000
vn 0.020817 0.999783 0.000000
vn -0.020817 0.999783 0.000000
vn -0.020817 0.999783 0.000000
vn 0.020817 0.999783 0.000000
vn 0.020817 0.999783 0.000000
vn 0.020817 0.999783 0.000000
vn 0.045821 0.998950 0.000000
vn 0.020817 0.999783 0.000000
vn 0.020817 0.999783 0.000000
vn 0.045821 0.998950 0.000000
vn 0.045821 0.998950 0.000000
vn 0.000000 0.000000 1.000000
vn 0.000000 0.000000 1.000000
vn 0.000000 0.000000 1.000000
vn 0.000000 0.000000 1.000000
vn 0.000000 0.000000 1.000000
vn 0.000000 0.000000 1.000000
vn 0.000000 0.000000 1.000000
vn 0.000000 0.000000 1.000000
vn 0.000000 0.000000 1.000000
vn 0.000000 0.000000 -1.000000
vn 0.000000 0.000000 -1.000000
vn 0.000000 0.000000 -1.000000
vn 0.000000 0.000000 -1.000000
vn 0.000000 0.000000 -1.000000
vn 0.000000 0.000000 -1.000000
vn 0.000000 0.000000 -1.000000
vn 0.000000 0.000000 -1.000000
vn 0.000000 0.000000 -1.000000
vn -0.014308 0.558260 0.829543
vn -0.004622 0.180351 0.983591
vn -0.013706 0.557740 0.829903
vn -0.013706 0.557740 0.829903
vn -0.004622 0.180351 0.983591
vn -0.000000 0.249240 0.968442
vn 0.014307 0.558260 0.829543
vn 0.013706 0.557740 0.829903
vn 0.004622 0.180352 0.983591
vn 0.004622 0.180352 0.983591
vn 0.013706 0.557740 0.829903
vn -0.000000 0.249240 0.968442
vn -0.008186 0.525674 -0.850647
vn -0.007768 0.523329 -0.852095
vn -0.002808 0.180315 -0.983605
vn -0.002808 0.180315 -0.983605
vn -0.007768 0.523329 -0.852095
vn -0.001998 0.128297 -0.991734
vn 0.008186 0.525674 -0.850647
vn 0.002808 0.180316 -0.983605
vn 0.007768 0.523329 -0.852095
vn 0.007768 0.523329 -0.852095
vn 0.002808 0.180316 -0.983605
vn 0.001998 0.128297 -0.991734
vn 0.013706 0.557740 0.829903
vn -0.013706 0.557740 0.829903
vn -0.000000 0.249240 0.968442
vn -0.001998 0.128297 -0.991734
vn -0.007768 0.523329 -0.852095
vn 0.001998 0.128297 -0.991734
vn -0.007768 0.523329 -0.852095
vn 0.007768 0.523329 -0.852095
vn 0.001998 0.128297 -0.991734
vn 0.418611 0.908166 0.000000
vn 0.619283 0.785168 0.000000
vn 0.418611 0.908166 0.000000
vn 0.418611 0.908166 0.000000
vn 0.619283 0.785168 0.000000
vn 0.654626 0.755953 0.000000
vn -0.418608 0.908167 0.000000
vn -0.619280 0.785171 0.000000
vn -0.418608 0.908167 0.000000
vn -0.418608 0.908167 0.000000
vn -0.619280 0.785171 0.000000
vn -0.654686 0.755901 0.000000
vn -0.045821 0.998950 0.000000
vn -0.020817 0.999783 0.000000
vn -0.045821 0.998950 0.000000
vn -0.045821 0.998950 0.000000
vn -0.020817 0.999783 0.000000
vn -0.020817 0.999783 0.000000
vn -0.020817 0.999783 0.000000
vn 0.020817 0.999783 0.000000
vn -0.020817 0.999783 0.000000
vn -0.020817 0.999783 0.000000
vn 0.020817 0.999783 0.000000
vn 0.020817 0.999783 0.000000
vn 0.045821 0.998950 0.000000
vn 0.045821 0.998950 0.000000
vn 0.020817 0.999783 0.000000
vn 0.020817 0.999783 0.000000
vn 0.045821 0.998950 0.000000
vn 0.020817 0.999783 0.000000
vn -0.654622 0.755956 0.000000
vn -0.619280 0.785171 0.000000
vn -0.418608 0.908167 0.000000
vn -0.418608 0.908167 0.000000
vn -0.619280 0.785171 0.000000
vn -0.418608 0.908167 0.000000
vn -1.000000 0.000000 0.000000
vn -0.619280 0.785171 0.000000
vn -1.000000 0.000000 0.000000
vn -1.000000 0.000000 0.000000
vn -0.619280 0.785171 0.000000
vn -0.654622 0.755956 0.000000
vn 0.418611 0.908166 0.000000
vn 0.418611 0.908166 0.000000
vn 0.619283 0.785168 0.000000
vn 0.619283 0.785168 0.000000
vn 0.418611 0.908166 0.000000
vn 0.654689 0.755898 0.000000
vn 0.654689 0.755898 0.000000
vn 1.000000 0.000000 0.000000
vn 0.619283 0.785168 0.000000
vn 0.619283 0.785168 0.000000
vn 1.000000 0.000000 0.000000
vn 1.000000 0.000000 0.000000
vn -0.000004 0.000000 -1.000000
vn 0.000004 0.000000 -1.000000
vn -0.000004 0.000000 -1.000000
vn -0.000004 0.000000 -1.000000
vn 0.000004 0.000000 -1.000000
vn 0.000004 0.000000 -1.000000
vn -0.000004 0.000000 -1.000000
vn -0.000004 0.000000 -1.000000
vn -0.000008 0.000000 -1.000000
vn -0.000008 0.000000 -1.000000
vn -0.000004 0.000000 -1.000000
vn -0.000008 0.000000 -1.000000
vn 0.000004 0.000000 -1.000000
vn 0.000008 0.000000 -1.000000
vn 0.000004 0.000000 -1.000000
vn 0.000004 0.000000 -1.000000
vn 0.000008 0.000000 -1.000000
vn 0.000008 0.000000 -1.000000
vn 1.000000 0.000000 0.000000
vn 1.000000 0.000000 0.000000
vn 0.962364 0.271762 0.000000
vn 0.962364 0.271762 0.000000
vn 1.000000 0.000000 0.000000
vn 0.962364 0.271762 0.000000
vn -0.688516 0.725221 0.000000
vn -0.688516 0.725221 0.000000
vn 0.000000 1.000000 0.000000
vn 0.000000 1.000000 0.000000
vn -0.688516 0.725221 0.000000
vn 0.000000 1.000000 0.000000
vn -0.962364 0.271762 0.000000
vn -0.688516 0.725221 0.000000
vn -0.962364 0.271762 0.000000
vn -0.962364 0.271762 0.000000
vn -0.688516 0.725221 0.000000
vn -0.688516 0.725221 0.000000
vn 0.977222 0.212220 0.000000
vn -0.962364 0.271762 0.000000
vn 0.977222 0.212220 0.000000
vn 0.977222 0.212220 0.000000
vn -0.962364 0.271762 0.000000
vn -0.962364 0.271762 0.000000
vn 1.000000 0.000000 0.000000
vn 1.000000 0.000000 0.000000
vn 0.977222 0.212220 0.000000
vn 0.977222 0.212220 0.000000
vn 1.000000 0.000000 0.000000
vn 0.977222 0.212220 0.000000
vn -0.977222 0.212220 0.000000
vn -1.000000 0.000000 0.000000
vn -0.977222 0.212220 0.000000
vn -0.977222 0.212220 0.000000
vn -1.000000 0.000000 0.000000
vn -1.000000 0.000000 0.000000
vn 0.962364 0.271762 0.000000
vn 0.962364 0.271762 0.000000
vn -0.977222 0.212220 0.000000
vn -0.977222 0.212220 0.000000
vn 0.962364 0.271762 0.000000
vn -0.977222 0.212220 0.000000
vn 0.000000 0.000000 -1.000000
vn 0.000002 0.000000 -1.000000
vn 0.000000 0.000000 -1.000000
vn 0.000000 0.000000 -1.000000
vn 0.000002 0.000000 -1.000000
vn 0.000002 0.000000 -1.000000
vn 0.000000 0.000000 -1.000000
vn 0.000000 0.000000 -1.000000
vn 0.000000 0.000000 -1.000000
vn 0.000000 0.000000 -1.000000
vn 0.000000 0.000000 -1.000000
vn 0.000000 0.000000 -1.000000
vn 0.000002 0.000000 -1.000000
vn 0.000004 0.000000 -1.000000
vn 0.000002 0.000000 -1.000000
vn 0.000002 0.000000 -1.000000
vn 0.000004 0.000000 -1.000000
vn 0.000004 0.000000 -1.000000
vn 1.000000 0.000000 0.000000
vn 1.000000 0.000000 0.000000
vn 0.962365 0.271761 0.000000
vn 0.962365 0.271761 0.000000
vn 1.000000 0.000000 0.000000
vn 0.962365 0.271761 0.000000
vn -0.688517 0.725220 0.000000
vn -0.688517 0.725220 0.000000
vn 0.000000 1.000000 0.000000
vn 0.000000 1.000000 0.000000
vn -0.688517 0.725220 0.000000
vn 0.000000 1.000000 0.000000
vn -0.962364 0.271764 0.000000
vn -0.688517 0.725220 0.000000
vn -0.962364 0.271764 0.000000
vn -0.962364 0.271764 0.000000
vn -0.688517 0.725220 0.000000
vn -0.688517 0.725220 0.000000
vn 0.977222 0.212221 0.000000
vn -0.962364 0.271764 0.000000
vn 0.977222 0.212221 0.000000
vn 0.977222 0.212221 0.000000
vn -0.962364 0.271764 0.000000
vn -0.962364 0.271764 0.000000
vn 1.000000 0.000000 0.000000
vn 1.000000 0.000000 0.000000
vn 0.977222 0.212221 0.000000
vn 0.977222 0.212221 0.000000
vn 1.000000 0.000000 0.000000
vn 0.977222 0.212221 0.000000
vn -0.977222 0.212219 0.000000
vn -1.000000 0.000000 0.000000
vn -0.977222 0.212219 0.000000
vn -0.977222 0.212219 0.000000
vn -1.000000 0.000000 0.000000
vn -1.000000 0.000000 0.000000
vn 0.962365 0.271761 0.000000
vn 0.962365 0.271761 0.000000
vn -0.977222 0.212219 0.000000
vn -0.977222 0.212219 0.000000
vn 0.962365 0.271761 0.000000
vn -0.977222 0.212219 0.000000
vn 0.000000 0.000000 -1.000000
vn 0.000002 0.000000 -1.000000
vn 0.000000 0.000000 -1.000000
vn 0.000000 0.000000 -1.000000
vn 0.000002 0.000000 -1.000000
vn 0.000002 0.000000 -1.000000
vn 0.000000 0.000000 -1.000000
vn 0.000000 0.000000 -1.000000
vn 0.000000 0.000000 -1.000000
vn 0.000000 0.000000 -1.000000
vn 0.000000 0.000000 -1.000000
vn 0.000000 0.000000 -1.000000
vn 0.000002 0.000000 -1.000000
vn 0.000004 0.000000 -1.000000
vn 0.000002 0.000000 -1.000000
vn 0.000002 0.000000 -1.000000
vn 0.000004 0.000000 -1.000000
vn 0.000004 0.000000 -1.000000
vn 1.000000 0.000000 0.000000
vn 1.000000 0.000000 0.000000
vn 0.962365 0.271761 0.000000
vn 0.962365 0.271761 0.000000
vn 1.000000 0.000000 0.000000
vn 0.962365 0.271761 0.000000
vn -0.688517 0.725220 0.000000
vn -0.688517 0.725220 0.000000
vn 0.000000 1.000000 0.000000
vn 0.000000 1.000000 0.000000
vn -0.688517 0.725220 0.000000
vn 0.000000 1.000000 0.000000
vn -0.962364 0.271764 0.000000
vn -0.688517 0.725220 0.000000
vn -0.962364 0.271764 0.000000
vn -0.962364 0.271764 0.000000
vn -0.688517 0.725220 0.000000
vn -0.688517 0.725220 0.000000
vn 0.977222 0.212221 0.000000
vn -0.962364 0.271764 0.000000
vn 0.977222 0.212221 0.000000
vn 0.977222 0.212221 0.000000
vn -0.962364 0.271764 0.000000
vn -0.962364 0.271764 0.000000
vn 1.000000 0.000000 0.000000
vn 1.000000 0.000000 0.000000
vn 0.977222 0.212221 0.000000
vn 0.977222 0.212221 0.000000
vn 1.000000 0.000000 0.000000
vn 0.977222 0.212221 0.000000
vn -0.977222 0.212219 0.000000
vn -1.000000 0.000000 0.000000
vn -0.977222 0.212219 0.000000
vn -0.977222 0.212219 0.000000
vn -1.000000 0.000000 0.000000
vn -1.000000 0.000000 0.000000
vn 0.962365 0.271761 0.000000
vn 0.962365 0.271761 0.000000
vn -0.977222 0.212219 0.000000
vn -0.977222 0.212219 0.000000
vn 0.962365 0.271761 0.000000
vn -0.977222 0.212219 0.000000
s off
g lppCube13
usemtl po2LP_roofSG1
f 1/1/1 2/2/2 4/4/3
f 4/4/4 2/2/5 3/3/6
f 1/1/7 4/4/8 6/6/9
f 6/6/10 4/4/11 5/5/12
f 2/2/13 7/7/14 3/3/15
f 3/3/16 7/7/17 8/8/18
f 9/9/19 3/10/20 10/12/21
f 10/12/22 3/10/23 8/11/24
f 11/13/25 4/14/26 9/16/27
f 9/16/28 4/14/29 3/15/30
f 5/17/31 4/14/32 12/18/33
f 12/18/34 4/14/35 11/13/36
f 6/19/37 5/17/38 13/20/39
f 13/20/40 5/17/41 12/18/42
f 14/21/43 1/22/44 13/20/45
f 13/20/46 1/22/47 6/19/48
f 7/25/49 2/24/50 16/26/51
f 16/26/52 2/24/53 15/23/54
f 10/12/55 8/11/56 16/26/57
f 16/26/58 8/11/59 7/25/60
f 17/27/61 18/28/62 20/29/63
f 20/29/64 18/28/65 19/30/66
f 21/31/67 22/32/68 18/28/69
f 18/28/70 22/32/71 19/30/72
f 23/33/73 24/34/74 26/35/75
f 26/35/76 24/34/77 25/36/78
f 27/37/79 25/36/80 29/38/81
f 29/38/82 25/36/83 28/39/84
f 25/36/85 24/34/86 28/39/87
f 48/40/88 49/41/89 33/42/90
f 33/42/91 49/41/92 32/43/93
f 54/44/94 55/45/95 29/46/96
f 29/46/97 55/45/98 27/47/99
f 17/48/100 20/49/101 53/50/102
f 53/50/103 20/49/104 52/51/105
f 49/41/106 50/52/107 32/43/108
f 32/43/109 50/52/110 35/53/111
f 50/52/112 51/54/113 35/53/114
f 35/53/115 51/54/116 37/55/117
f 38/56/118 39/57/119 40/58/120
f 40/58/121 39/57/122 41/59/123
f 38/56/124 42/60/125 39/57/126
f 43/61/127 44/62/128 45/63/129
f 46/64/130 44/62/131 47/65/132
f 47/65/133 44/62/134 43/61/135
f 30/66/136 20/29/137 31/67/138
f 31/67/139 20/29/140 19/30/141
f 36/68/142 34/69/143 22/32/144
f 22/32/145 34/69/146 19/30/147
f 33/70/148 32/71/149 23/33/150
f 23/33/151 32/71/152 24/34/153
f 37/72/154 29/38/155 35/73/156
f 35/73/157 29/38/158 28/39/159
f 34/69/160 31/67/161 19/30/162
f 24/34/163 32/71/164 28/39/165
f 32/71/166 35/73/167 28/39/168
f 51/74/169 54/44/170 37/75/171
f 37/75/172 54/44/173 29/46/174
f 48/76/175 52/51/176 30/77/177
f 30/77/178 52/51/179 20/49/180
f 30/78/181 31/79/182 48/80/183
f 48/80/184 31/79/185 49/81/186
f 31/79/187 34/82/188 49/81/189
f 49/81/190 34/82/191 50/83/192
f 36/84/193 51/85/194 34/82/195
f 34/82/196 51/85/197 50/83/198
f 23/86/199 52/87/200 33/88/201
f 33/88/202 52/87/203 48/89/204
f 53/90/205 52/87/206 26/91/207
f 26/91/208 52/87/209 23/86/210
f 51/92/211 36/93/212 54/94/213
f 54/94/214 36/93/215 22/95/216
f 22/95/217 21/96/218 54/94/219
f 54/94/220 21/96/221 55/97/222
f 56/98/223 57/99/224 59/100/225
f 59/100/226 57/99/227 58/101/228
f 56/98/229 59/100/230 61/102/231
f 61/102/232 59/100/233 60/103/234
f 57/99/235 62/104/236 58/101/237
f 58/101/238 62/104/239 63/105/240
f 64/106/241 58/107/242 65/108/243
f 65/108/244 58/107/245 63/109/246
f 66/110/247 59/111/248 64/112/249
f 64/112/250 59/111/251 58/113/252
f 60/114/253 59/111/254 67/115/255
f 67/115/256 59/111/257 66/110/258
f 61/116/259 60/114/260 68/117/261
f 68/117/262 60/114/263 67/115/264
f 69/118/265 56/119/266 68/117/267
f 68/117/268 56/119/269 61/116/270
f 62/120/271 57/121/272 71/122/273
f 71/122/274 57/121/275 70/123/276
f 65/108/277 63/109/278 71/122/279
f 71/122/280 63/109/281 62/120/282
f 72/124/283 73/125/284 75/126/285
f 75/126/286 73/125/287 74/127/288
f 72/124/289 75/126/290 77/128/291
f 77/128/292 75/126/293 76/129/294
f 73/125/295 78/130/296 74/127/297
f 74/127/298 78/130/299 79/131/300
f 80/132/301 74/133/302 81/134/303
f 81/134/304 74/133/305 79/135/306
f 82/136/307 75/137/308 80/138/309
f 80/138/310 75/137/311 74/139/312
f 76/140/313 75/137/314 83/141/315
f 83/141/316 75/137/317 82/136/318
f 77/142/319 76/140/320 84/143/321
f 84/143/322 76/140/323 83/141/324
f 85/144/325 72/145/326 84/143/327
f 84/143/328 72/145/329 77/142/330
f 78/146/331 73/147/332 87/148/333
f 87/148/334 73/147/335 86/149/336
f 81/134/337 79/135/338 87/148/339
f 87/148/340 79/135/341 78/146/342
f 88/150/343 89/151/344 91/152/345
f 91/152/346 89/151/347 90/153/348
f 88/150/349 91/152/350 93/154/351
f 93/154/352 91/152/353 92/155/354
f 89/151/355 94/156/356 90/153/357
f 90/153/358 94/156/359 95/157/360
f 96/158/361 90/159/362 97/160/363
f 97/160/364 90/159/365 95/161/366
f 98/162/367 91/163/368 96/164/369
f 96/164/370 91/163/371 90/165/372
f 92/166/373 91/163/374 99/167/375
f 99/167/376 91/163/377 98/162/378
f 93/168/379 92/166/380 100/169/381
f 100/169/382 92/166/383 99/167/384
f 101/170/385 88/171/386 100/169/387
f 100/169/388 88/171/389 93/168/390
f 94/172/391 89/173/392 103/174/393
f 103/174/394 89/173/395 102/175/396
f 97/160/397 95/161/398 103/174/399
f 103/174/400 95/161/401 94/172/402
