# This file uses centimeters as units for non-parametric coordinates.

mtllib obstacle_big_roofexit_test.mtl
g default
v -0.556132 -0.072577 -2.116718
v 0.470895 -0.072577 -2.116718
v -0.556132 1.489107 -2.116718
v 0.470895 1.489107 -2.116718
v -0.556132 1.489107 -2.450683
v 0.470895 1.489107 -2.450683
v -0.556132 -0.072577 -2.450683
v 0.470895 -0.072577 -2.450683
v -0.454980 1.387955 -2.450683
v 0.369743 1.387955 -2.450683
v 0.369743 0.028575 -2.450683
v -0.454980 0.028575 -2.450683
v -0.454980 1.387955 -2.408117
v 0.369743 1.387955 -2.408117
v 0.369743 0.028575 -2.408117
v -0.454980 0.028575 -2.408117
vt 0.375000 0.000000
vt 0.625000 0.000000
vt 0.375000 0.250000
vt 0.625000 0.250000
vt 0.375000 0.500000
vt 0.625000 0.500000
vt 0.375000 0.750000
vt 0.625000 0.750000
vt 0.375000 1.000000
vt 0.625000 1.000000
vt 0.875000 0.000000
vt 0.875000 0.250000
vt 0.125000 0.000000
vt 0.125000 0.250000
vt 0.375000 0.500000
vt 0.625000 0.500000
vt 0.625000 0.750000
vt 0.375000 0.750000
vt 0.375000 0.500000
vt 0.625000 0.500000
vt 0.625000 0.750000
vt 0.375000 0.750000
vn 0.000000 0.000000 1.000000
vn 0.000000 0.000000 1.000000
vn 0.000000 0.000000 1.000000
vn 0.000000 0.000000 1.000000
vn 0.000000 1.000000 0.000000
vn 0.000000 1.000000 0.000000
vn 0.000000 1.000000 0.000000
vn 0.000000 1.000000 0.000000
vn 0.000000 0.000000 -1.000000
vn 0.000000 0.000000 -1.000000
vn 0.000000 0.000000 -1.000000
vn 0.000000 0.000000 -1.000000
vn 0.000000 -1.000000 0.000000
vn 0.000000 -1.000000 0.000000
vn 0.000000 -1.000000 0.000000
vn 0.000000 -1.000000 0.000000
vn 1.000000 0.000000 0.000000
vn 1.000000 0.000000 0.000000
vn 1.000000 0.000000 0.000000
vn 1.000000 0.000000 0.000000
vn -1.000000 0.000000 0.000000
vn -1.000000 0.000000 0.000000
vn -1.000000 0.000000 0.000000
vn -1.000000 0.000000 0.000000
vn 0.000000 0.000000 -1.000000
vn -0.000000 0.000000 -1.000000
vn -0.000000 0.000000 -1.000000
vn 0.000000 0.000000 -1.000000
vn -0.000000 0.000000 -1.000000
vn -0.000000 0.000000 -1.000000
vn 0.000000 0.000000 -1.000000
vn 0.000000 0.000000 -1.000000
vn 0.000000 -1.000000 0.000000
vn 0.000000 -1.000000 0.000000
vn 0.000000 -1.000000 0.000000
vn 0.000000 -1.000000 0.000000
vn -1.000000 0.000000 0.000000
vn -1.000000 0.000000 0.000000
vn -1.000000 0.000000 0.000000
vn -1.000000 0.000000 0.000000
vn 0.000000 1.000000 0.000000
vn 0.000000 1.000000 0.000000
vn 0.000000 1.000000 0.000000
vn 0.000000 1.000000 0.000000
vn 1.000000 0.000000 0.000000
vn 1.000000 0.000000 0.000000
vn 1.000000 0.000000 0.000000
vn 1.000000 0.000000 0.000000
s off
g pCube10 OBSTACLE_big_2
usemtl initialShadingGroup
f 1/1/1 2/2/2 4/4/3 3/3/4
f 3/3/5 4/4/6 6/6/7 5/5/8
f 13/19/9 14/20/10 15/21/11 16/22/12
f 7/7/13 8/8/14 2/10/15 1/9/16
f 2/2/17 8/11/18 6/12/19 4/4/20
f 7/13/21 1/1/22 3/3/23 5/14/24
s 1
f 5/5/25 6/6/26 10/16/27 9/15/28
f 6/6/26 8/8/29 11/17/30 10/16/27
f 8/8/29 7/7/31 12/18/32 11/17/30
f 7/7/31 5/5/25 9/15/28 12/18/32
s off
f 9/15/33 10/16/34 14/20/35 13/19/36
f 10/16/37 11/17/38 15/21/39 14/20/40
f 11/17/41 12/18/42 16/22/43 15/21/44
f 12/18/45 9/15/46 13/19/47 16/22/48
g default
v -0.908615 -0.043419 2.276338
v 0.908615 -0.043419 2.276338
v -0.908615 1.945099 2.276338
v 0.908615 1.945099 2.276338
v -0.908615 1.945099 -2.366950
v 0.908615 1.945099 -2.366950
v -0.908615 -0.043419 -2.366950
v 0.908615 -0.043419 -2.366950
v 0.000000 2.830971 2.276338
v 0.000000 2.830971 -2.366950
v -0.987623 2.026134 2.276338
v 0.000000 2.912006 2.276338
v 0.000000 2.912006 -2.366950
v -0.987623 2.026134 -2.366950
v 0.987623 2.026134 2.276338
v 0.987623 2.026134 -2.366950
vt 0.375000 0.000000
vt 0.625000 0.000000
vt 0.375000 0.250000
vt 0.625000 0.250000
vt 0.375000 0.500000
vt 0.625000 0.500000
vt 0.375000 0.750000
vt 0.625000 0.750000
vt 0.375000 1.000000
vt 0.625000 1.000000
vt 0.875000 0.000000
vt 0.875000 0.250000
vt 0.125000 0.000000
vt 0.125000 0.250000
vt 0.500000 0.250000
vt 0.500000 0.500000
vt 0.375000 0.250000
vt 0.500000 0.250000
vt 0.500000 0.500000
vt 0.375000 0.500000
vt 0.625000 0.250000
vt 0.625000 0.500000
vn 0.000000 0.000000 1.000000
vn 0.000000 0.000000 1.000000
vn -0.000000 0.000000 1.000000
vn -0.000000 0.000000 1.000000
vn -0.000000 0.000000 1.000000
vn -0.667719 0.744413 0.000000
vn -0.667719 0.744413 0.000000
vn -0.667719 0.744413 0.000000
vn -0.667719 0.744413 0.000000
vn 0.000000 0.000000 -1.000000
vn 0.000000 0.000000 -1.000000
vn 0.000000 0.000000 -1.000000
vn 0.000000 0.000000 -1.000000
vn 0.000000 0.000000 -1.000000
vn 0.000000 -1.000000 0.000000
vn 0.000000 -1.000000 0.000000
vn 0.000000 -1.000000 0.000000
vn 0.000000 -1.000000 0.000000
vn 1.000000 0.000000 0.000000
vn 1.000000 0.000000 0.000000
vn 1.000000 0.000000 0.000000
vn 1.000000 0.000000 0.000000
vn -1.000000 0.000000 0.000000
vn -1.000000 0.000000 0.000000
vn -1.000000 0.000000 0.000000
vn -1.000000 0.000000 0.000000
vn 0.667719 0.744413 0.000000
vn 0.667719 0.744413 0.000000
vn 0.667719 0.744413 0.000000
vn 0.667719 0.744413 0.000000
vn -0.000000 0.000000 1.000000
vn -0.000000 0.000000 1.000000
vn 0.000000 0.000000 -1.000000
vn 0.000000 0.000000 -1.000000
vn -0.716006 -0.698094 0.000000
vn -0.716006 -0.698094 0.000000
vn -0.716006 -0.698094 0.000000
vn -0.716006 -0.698094 0.000000
vn -0.000000 0.000000 1.000000
vn 0.716006 -0.698094 0.000000
vn 0.716006 -0.698094 0.000000
vn 0.716006 -0.698094 0.000000
vn 0.716006 -0.698094 0.000000
vn 0.000000 0.000000 -1.000000
s 1
g OBSTACLE_big_2 pCube9
usemtl blinn3SG
f 17/23/49 18/24/50 20/26/51 25/37/52 19/25/53
s off
f 27/39/54 28/40/55 29/41/56 30/42/57
s 2
f 21/27/58 26/38/59 22/28/60 24/30/61 23/29/62
s off
f 23/29/63 24/30/64 18/32/65 17/31/66
f 18/24/67 24/33/68 22/34/69 20/26/70
f 23/35/71 17/23/72 19/25/73 21/36/74
f 29/41/75 28/40/76 31/43/77 32/44/78
s 1
f 19/25/53 25/37/52 28/40/79 27/39/80
s 2
f 26/38/59 21/27/58 30/42/81 29/41/82
s off
f 21/27/83 19/25/84 27/39/85 30/42/86
s 1
f 25/37/52 20/26/51 31/43/87 28/40/79
s off
f 20/26/88 22/28/89 32/44/90 31/43/91
s 2
f 22/28/60 26/38/59 29/41/82 32/44/92
