# This file uses centimeters as units for non-parametric coordinates.

mtllib coin.mtl
g default
v 0.329608 -0.087196 -0.103736
v 0.281926 -0.087196 -0.197317
v 0.207659 -0.087196 -0.271584
v 0.114078 -0.087196 -0.319266
v 0.010342 -0.087196 -0.335696
v -0.093393 -0.087196 -0.319266
v -0.186975 -0.087196 -0.271584
v -0.261241 -0.087196 -0.197317
v -0.308923 -0.087196 -0.103736
v -0.325353 -0.087196 0.000000
v -0.308923 -0.087196 0.103736
v -0.261241 -0.087196 0.197317
v -0.186975 -0.087196 0.271583
v -0.093393 -0.087196 0.319266
v 0.010342 -0.087196 0.335696
v 0.114078 -0.087196 0.319266
v 0.207659 -0.087196 0.271583
v 0.281926 -0.087196 0.197317
v 0.329608 -0.087196 0.103736
v 0.346038 -0.087196 0.000000
v 0.329608 -0.022032 -0.103736
v 0.281926 -0.022032 -0.197317
v 0.207659 -0.022032 -0.271584
v 0.114078 -0.022032 -0.319266
v 0.010342 -0.022032 -0.335696
v -0.093393 -0.022032 -0.319266
v -0.186975 -0.022032 -0.271584
v -0.261241 -0.022032 -0.197317
v -0.308923 -0.022032 -0.103736
v -0.325353 -0.022032 0.000000
v -0.308923 -0.022032 0.103736
v -0.261241 -0.022032 0.197317
v -0.186975 -0.022032 0.271583
v -0.093393 -0.022032 0.319266
v 0.010342 -0.022032 0.335696
v 0.114078 -0.022032 0.319266
v 0.207659 -0.022032 0.271583
v 0.281926 -0.022032 0.197317
v 0.329608 -0.022032 0.103736
v 0.346038 -0.022032 0.000000
v 0.010342 -0.123621 0.000000
v 0.010342 0.047085 0.000000
v 0.156445 0.024066 -0.146103
v 0.042665 0.024066 -0.204076
v -0.083461 0.024066 -0.184100
v -0.173758 0.024066 -0.093804
v -0.193734 0.024066 0.032323
v -0.135760 0.024066 0.146102
v -0.021980 0.024066 0.204076
v 0.104146 0.024066 0.184100
v 0.194442 0.024066 0.093804
v 0.214419 0.024066 -0.032323
v 0.288470 -0.109895 -0.044051
v 0.261245 -0.109895 0.127841
v 0.138184 -0.109895 0.250903
v -0.033709 -0.109895 0.278128
v -0.188775 -0.109895 0.199118
v -0.267786 -0.109895 0.044051
v -0.240561 -0.109895 -0.127841
v -0.117499 -0.109895 -0.250903
v 0.054393 -0.109895 -0.278128
v 0.209460 -0.109895 -0.199118
vt 0.177745 0.751310
vt 0.164314 0.766866
vt 0.156347 0.785810
vt 0.154624 0.806290
vt 0.159314 0.826299
vt 0.169958 0.843880
vt 0.185513 0.857311
vt 0.204458 0.865278
vt 0.224937 0.867000
vt 0.244946 0.862310
vt 0.262527 0.851667
vt 0.275958 0.836112
vt 0.283925 0.817167
vt 0.285648 0.796688
vt 0.280957 0.776678
vt 0.270314 0.759098
vt 0.254759 0.745667
vt 0.235814 0.737700
vt 0.215335 0.735977
vt 0.195326 0.740667
vt 0.431657 0.936746
vt 0.410695 0.936746
vt 0.389731 0.936746
vt 0.368767 0.936746
vt 0.347800 0.936746
vt 0.326840 0.936746
vt 0.305876 0.936746
vt 0.284911 0.936746
vt 0.263946 0.936746
vt 0.242984 0.936746
vt 0.222018 0.936746
vt 0.201054 0.936746
vt 0.180090 0.936746
vt 0.159123 0.936746
vt 0.138162 0.936746
vt 0.117199 0.936746
vt 0.096233 0.936746
vt 0.075269 0.936746
vt 0.054307 0.936746
vt 0.033339 0.936746
vt 0.012378 0.936746
vt 0.431657 0.924539
vt 0.410695 0.924539
vt 0.389729 0.924539
vt 0.368766 0.924539
vt 0.347799 0.924539
vt 0.326840 0.924539
vt 0.305875 0.924539
vt 0.284910 0.924539
vt 0.263946 0.924539
vt 0.242983 0.924539
vt 0.222018 0.924539
vt 0.201054 0.924539
vt 0.180089 0.924539
vt 0.159123 0.924539
vt 0.138160 0.924539
vt 0.117199 0.924539
vt 0.096232 0.924539
vt 0.075269 0.924539
vt 0.054307 0.924539
vt 0.033339 0.924539
vt 0.012378 0.924539
vt 0.059988 0.359918
vt 0.041530 0.369322
vt 0.026881 0.383971
vt 0.017477 0.402429
vt 0.014235 0.422890
vt 0.017476 0.443350
vt 0.026882 0.461809
vt 0.041529 0.476457
vt 0.059988 0.485861
vt 0.080449 0.489102
vt 0.100909 0.485861
vt 0.119367 0.476457
vt 0.134015 0.461808
vt 0.143421 0.443351
vt 0.146661 0.422890
vt 0.143421 0.402429
vt 0.134016 0.383971
vt 0.119367 0.369322
vt 0.100909 0.359918
vt 0.080449 0.356677
vt 0.217703 0.802481
vt 0.080448 0.422890
vt 0.108459 0.394878
vt 0.119574 0.416692
vt 0.115744 0.440874
vt 0.098433 0.458185
vt 0.074251 0.462015
vt 0.052438 0.450901
vt 0.041322 0.429086
vt 0.045152 0.404905
vt 0.062464 0.387593
vt 0.086645 0.383764
vt 0.191751 0.755077
vt 0.224463 0.747410
vt 0.255434 0.760435
vt 0.272836 0.789176
vt 0.270019 0.822656
vt 0.248061 0.848087
vt 0.215349 0.855755
vt 0.184378 0.842730
vt 0.166977 0.813989
vt 0.169793 0.780508
vn 0.951057 0.000000 -0.309016
vn 0.809017 0.000000 -0.587785
vn 0.809017 0.000000 -0.587785
vn 0.951057 0.000000 -0.309016
vn 0.587785 0.000000 -0.809017
vn 0.587785 0.000000 -0.809017
vn 0.309016 0.000000 -0.951057
vn 0.309016 0.000000 -0.951057
vn 0.000000 0.000000 -1.000000
vn 0.000000 0.000000 -1.000000
vn -0.309017 0.000000 -0.951056
vn -0.309017 0.000000 -0.951056
vn -0.587786 0.000000 -0.809016
vn -0.587786 0.000000 -0.809016
vn -0.809017 0.000000 -0.587786
vn -0.809017 0.000000 -0.587786
vn -0.951056 0.000000 -0.309017
vn -0.951056 0.000000 -0.309017
vn -1.000000 0.000000 0.000000
vn -1.000000 0.000000 0.000000
vn -0.951056 0.000000 0.309017
vn -0.951056 0.000000 0.309017
vn -0.809016 0.000000 0.587786
vn -0.809016 0.000000 0.587786
vn -0.587786 0.000000 0.809017
vn -0.587786 0.000000 0.809017
vn -0.309018 0.000000 0.951056
vn -0.309018 0.000000 0.951056
vn 0.000001 0.000000 1.000000
vn 0.000001 0.000000 1.000000
vn 0.309017 0.000000 0.951056
vn 0.309017 0.000000 0.951056
vn 0.587785 0.000000 0.809017
vn 0.587785 0.000000 0.809017
vn 0.809017 0.000000 0.587785
vn 0.809017 0.000000 0.587785
vn 0.951056 0.000000 0.309018
vn 0.951056 0.000000 0.309018
vn 1.000000 0.000000 0.000002
vn 1.000000 0.000000 0.000002
vn 0.096343 -0.990674 -0.096343
vn 0.134573 -0.990674 -0.021314
vn -0.000000 -1.000000 0.000000
vn 0.021314 -0.990674 -0.134573
vn -0.061856 -0.990674 -0.121400
vn -0.121400 -0.990674 -0.061856
vn -0.134573 -0.990674 0.021314
vn -0.096343 -0.990674 0.096343
vn -0.021314 -0.990674 0.134573
vn 0.061856 -0.990674 0.121400
vn 0.121400 -0.990674 0.061856
vn 0.236379 0.970939 -0.037439
vn 0.169229 0.970939 -0.169229
vn 0.000000 1.000000 -0.000000
vn 0.037439 0.970939 -0.236379
vn -0.108652 0.970939 -0.213241
vn -0.213241 0.970939 -0.108651
vn -0.236379 0.970939 0.037439
vn -0.169229 0.970939 0.169229
vn -0.037439 0.970939 0.236379
vn 0.108652 0.970939 0.213241
vn 0.213241 0.970939 0.108652
vn 0.300767 0.945449 -0.125158
vn 0.278041 0.945449 -0.169760
vn 0.169760 0.945449 -0.278041
vn 0.125158 0.945449 -0.300767
vn -0.026090 0.945449 -0.324722
vn -0.075532 0.945449 -0.316892
vn -0.211975 0.945449 -0.247371
vn -0.247371 0.945449 -0.211975
vn -0.316892 0.945449 -0.075532
vn -0.324723 0.945449 -0.026090
vn -0.300767 0.945449 0.125158
vn -0.278042 0.945449 0.169760
vn -0.169760 0.945449 0.278041
vn -0.125158 0.945449 0.300767
vn 0.026091 0.945449 0.324722
vn 0.075532 0.945449 0.316892
vn 0.211975 0.945449 0.247371
vn 0.247371 0.945449 0.211975
vn 0.316892 0.945449 0.075532
vn 0.324723 0.945449 0.026091
vn 0.310991 -0.939594 -0.142996
vn 0.339959 -0.939593 0.039896
vn 0.335649 -0.939594 0.067110
vn 0.251582 -0.939594 0.232099
vn 0.232099 -0.939594 0.251582
vn 0.067110 -0.939593 0.335649
vn 0.039896 -0.939594 0.339959
vn -0.142997 -0.939594 0.310992
vn -0.167547 -0.939594 0.298483
vn -0.298483 -0.939594 0.167547
vn -0.310992 -0.939594 0.142997
vn -0.339959 -0.939594 -0.039896
vn -0.335649 -0.939594 -0.067110
vn -0.251583 -0.939593 -0.232100
vn -0.232100 -0.939593 -0.251583
vn -0.067110 -0.939594 -0.335649
vn -0.039896 -0.939594 -0.339959
vn 0.142996 -0.939594 -0.310991
vn 0.167546 -0.939594 -0.298483
vn 0.298483 -0.939594 -0.167546
s 1
g pCylinder2 bonuses
usemtl lambert2SG
f 1/21/1 2/22/2 22/43/3 21/42/4
f 2/22/2 3/23/5 23/44/6 22/43/3
f 3/23/5 4/24/7 24/45/8 23/44/6
f 4/24/7 5/25/9 25/46/10 24/45/8
f 5/25/9 6/26/11 26/47/12 25/46/10
f 6/26/11 7/27/13 27/48/14 26/47/12
f 7/27/13 8/28/15 28/49/16 27/48/14
f 8/28/15 9/29/17 29/50/18 28/49/16
f 9/29/17 10/30/19 30/51/20 29/50/18
f 10/30/19 11/31/21 31/52/22 30/51/20
f 11/31/21 12/32/23 32/53/24 31/52/22
f 12/32/23 13/33/25 33/54/26 32/53/24
f 13/33/25 14/34/27 34/55/28 33/54/26
f 14/34/27 15/35/29 35/56/30 34/55/28
f 15/35/29 16/36/31 36/57/32 35/56/30
f 16/36/31 17/37/33 37/58/34 36/57/32
f 17/37/33 18/38/35 38/59/36 37/58/34
f 18/38/35 19/39/37 39/60/38 38/59/36
f 19/39/37 20/40/39 40/61/40 39/60/38
f 20/40/39 1/41/1 21/62/4 40/61/40
s 2
f 62/104/41 53/95/42 41/83/43
f 61/103/44 62/104/41 41/83/43
f 60/102/45 61/103/44 41/83/43
f 59/101/46 60/102/45 41/83/43
f 58/100/47 59/101/46 41/83/43
f 57/99/48 58/100/47 41/83/43
f 56/98/49 57/99/48 41/83/43
f 55/97/50 56/98/49 41/83/43
f 54/96/51 55/97/50 41/83/43
f 53/95/42 54/96/51 41/83/43
s 3
f 52/94/52 43/85/53 42/84/54
f 43/85/53 44/86/55 42/84/54
f 44/86/55 45/87/56 42/84/54
f 45/87/56 46/88/57 42/84/54
f 46/88/57 47/89/58 42/84/54
f 47/89/58 48/90/59 42/84/54
f 48/90/59 49/91/60 42/84/54
f 49/91/60 50/92/61 42/84/54
f 50/92/61 51/93/62 42/84/54
f 51/93/62 52/94/52 42/84/54
f 21/81/63 22/80/64 43/85/53 52/94/52
f 22/80/64 23/79/65 43/85/53
f 23/79/65 24/78/66 44/86/55 43/85/53
f 24/78/66 25/77/67 44/86/55
f 25/77/67 26/76/68 45/87/56 44/86/55
f 26/76/68 27/75/69 45/87/56
f 27/75/69 28/74/70 46/88/57 45/87/56
f 28/74/70 29/73/71 46/88/57
f 29/73/71 30/72/72 47/89/58 46/88/57
f 30/72/72 31/71/73 47/89/58
f 31/71/73 32/70/74 48/90/59 47/89/58
f 32/70/74 33/69/75 48/90/59
f 33/69/75 34/68/76 49/91/60 48/90/59
f 34/68/76 35/67/77 49/91/60
f 35/67/77 36/66/78 50/92/61 49/91/60
f 36/66/78 37/65/79 50/92/61
f 37/65/79 38/64/80 51/93/62 50/92/61
f 38/64/80 39/63/81 51/93/62
f 39/63/81 40/82/82 52/94/52 51/93/62
f 40/82/82 21/81/63 52/94/52
s 2
f 1/1/83 20/20/84 53/95/42
f 20/20/84 19/19/85 54/96/51 53/95/42
f 19/19/85 18/18/86 54/96/51
f 18/18/86 17/17/87 55/97/50 54/96/51
f 17/17/87 16/16/88 55/97/50
f 16/16/88 15/15/89 56/98/49 55/97/50
f 15/15/89 14/14/90 56/98/49
f 14/14/90 13/13/91 57/99/48 56/98/49
f 13/13/91 12/12/92 57/99/48
f 12/12/92 11/11/93 58/100/47 57/99/48
f 11/11/93 10/10/94 58/100/47
f 10/10/94 9/9/95 59/101/46 58/100/47
f 9/9/95 8/8/96 59/101/46
f 8/8/96 7/7/97 60/102/45 59/101/46
f 7/7/97 6/6/98 60/102/45
f 6/6/98 5/5/99 61/103/44 60/102/45
f 5/5/99 4/4/100 61/103/44
f 4/4/100 3/3/101 62/104/41 61/103/44
f 3/3/101 2/2/102 62/104/41
f 2/2/102 1/1/83 53/95/42 62/104/41
