# This file uses centimeters as units for non-parametric coordinates.

mtllib coin.mtl
g default
v 0.329608 -0.087196 -0.103736
v 0.281926 -0.087196 -0.197317
v 0.207659 -0.087196 -0.271584
v 0.114078 -0.087196 -0.319266
v 0.010342 -0.087196 -0.335696
v -0.093393 -0.087196 -0.319266
v -0.186975 -0.087196 -0.271584
v -0.261241 -0.087196 -0.197317
v -0.308923 -0.087196 -0.103736
v -0.325353 -0.087196 0.000000
v -0.308923 -0.087196 0.103736
v -0.261241 -0.087196 0.197317
v -0.186975 -0.087196 0.271583
v -0.093393 -0.087196 0.319266
v 0.010342 -0.087196 0.335696
v 0.114078 -0.087196 0.319266
v 0.207659 -0.087196 0.271583
v 0.281926 -0.087196 0.197317
v 0.329608 -0.087196 0.103736
v 0.346038 -0.087196 0.000000
v 0.329608 -0.022032 -0.103736
v 0.281926 -0.022032 -0.197317
v 0.207659 -0.022032 -0.271584
v 0.114078 -0.022032 -0.319266
v 0.010342 -0.022032 -0.335696
v -0.093393 -0.022032 -0.319266
v -0.186975 -0.022032 -0.271584
v -0.261241 -0.022032 -0.197317
v -0.308923 -0.022032 -0.103736
v -0.325353 -0.022032 0.000000
v -0.308923 -0.022032 0.103736
v -0.261241 -0.022032 0.197317
v -0.186975 -0.022032 0.271583
v -0.093393 -0.022032 0.319266
v 0.010342 -0.022032 0.335696
v 0.114078 -0.022032 0.319266
v 0.207659 -0.022032 0.271583
v 0.281926 -0.022032 0.197317
v 0.329608 -0.022032 0.103736
v 0.346038 -0.022032 0.000000
v 0.010342 -0.123621 0.000000
v 0.010342 0.047085 0.000000
v 0.156445 0.024066 -0.146103
v 0.042665 0.024066 -0.204076
v -0.083461 0.024066 -0.184100
v -0.173758 0.024066 -0.093804
v -0.193734 0.024066 0.032323
v -0.135760 0.024066 0.146102
v -0.021980 0.024066 0.204076
v 0.104146 0.024066 0.184100
v 0.194442 0.024066 0.093804
v 0.214419 0.024066 -0.032323
v 0.288470 -0.109895 -0.044051
v 0.261245 -0.109895 0.127841
v 0.138184 -0.109895 0.250903
v -0.033709 -0.109895 0.278128
v -0.188775 -0.109895 0.199118
v -0.267786 -0.109895 0.044051
v -0.240561 -0.109895 -0.127841
v -0.117499 -0.109895 -0.250903
v 0.054393 -0.109895 -0.278128
v 0.209460 -0.109895 -0.199118
vt 0.431657 0.936746
vt 0.410695 0.936746
vt 0.410695 0.924539
vt 0.431657 0.924539
vt 0.389731 0.936746
vt 0.389729 0.924539
vt 0.368767 0.936746
vt 0.368766 0.924539
vt 0.347800 0.936746
vt 0.347799 0.924539
vt 0.326840 0.936746
vt 0.326840 0.924539
vt 0.305876 0.936746
vt 0.305875 0.924539
vt 0.284911 0.936746
vt 0.284910 0.924539
vt 0.263946 0.936746
vt 0.263946 0.924539
vt 0.242984 0.936746
vt 0.242983 0.924539
vt 0.222018 0.936746
vt 0.222018 0.924539
vt 0.201054 0.936746
vt 0.201054 0.924539
vt 0.180090 0.936746
vt 0.180089 0.924539
vt 0.159123 0.936746
vt 0.159123 0.924539
vt 0.138162 0.936746
vt 0.138160 0.924539
vt 0.117199 0.936746
vt 0.117199 0.924539
vt 0.096233 0.936746
vt 0.096232 0.924539
vt 0.075269 0.936746
vt 0.075269 0.924539
vt 0.054307 0.936746
vt 0.054307 0.924539
vt 0.033339 0.936746
vt 0.033339 0.924539
vt 0.012378 0.936746
vt 0.012378 0.924539
vt 0.169793 0.780508
vt 0.191751 0.755077
vt 0.217703 0.802481
vt 0.166977 0.813989
vt 0.184378 0.842730
vt 0.215349 0.855755
vt 0.248061 0.848087
vt 0.270019 0.822656
vt 0.272836 0.789176
vt 0.255434 0.760435
vt 0.224463 0.747410
vt 0.086645 0.383764
vt 0.108459 0.394878
vt 0.080448 0.422890
vt 0.119574 0.416692
vt 0.115744 0.440874
vt 0.098433 0.458185
vt 0.074251 0.462015
vt 0.052438 0.450901
vt 0.041322 0.429086
vt 0.045152 0.404905
vt 0.062464 0.387593
vt 0.100909 0.359918
vt 0.119367 0.369322
vt 0.134016 0.383971
vt 0.143421 0.402429
vt 0.146661 0.422890
vt 0.143421 0.443351
vt 0.134015 0.461808
vt 0.119367 0.476457
vt 0.100909 0.485861
vt 0.080449 0.489102
vt 0.059988 0.485861
vt 0.041529 0.476457
vt 0.026882 0.461809
vt 0.017476 0.443350
vt 0.014235 0.422890
vt 0.017477 0.402429
vt 0.026881 0.383971
vt 0.041530 0.369322
vt 0.059988 0.359918
vt 0.080449 0.356677
vt 0.177745 0.751310
vt 0.195326 0.740667
vt 0.215335 0.735977
vt 0.235814 0.737700
vt 0.254759 0.745667
vt 0.270314 0.759098
vt 0.280957 0.776678
vt 0.285648 0.796688
vt 0.283925 0.817167
vt 0.275958 0.836112
vt 0.262527 0.851667
vt 0.244946 0.862310
vt 0.224937 0.867000
vt 0.204458 0.865278
vt 0.185513 0.857311
vt 0.169958 0.843880
vt 0.159314 0.826299
vt 0.154624 0.806290
vt 0.156347 0.785810
vt 0.164314 0.766866
vn 0.951057 0.000000 -0.309016
vn 0.809017 0.000000 -0.587785
vn 0.809017 0.000000 -0.587785
vn 0.951057 0.000000 -0.309016
vn 0.587785 0.000000 -0.809017
vn 0.587785 0.000000 -0.809017
vn 0.309016 0.000000 -0.951057
vn 0.309016 0.000000 -0.951057
vn 0.000000 0.000000 -1.000000
vn 0.000000 0.000000 -1.000000
vn -0.309017 0.000000 -0.951056
vn -0.309017 0.000000 -0.951056
vn -0.587786 0.000000 -0.809016
vn -0.587786 0.000000 -0.809016
vn -0.809017 0.000000 -0.587786
vn -0.809017 0.000000 -0.587786
vn -0.951056 0.000000 -0.309017
vn -0.951056 0.000000 -0.309017
vn -1.000000 0.000000 0.000000
vn -1.000000 0.000000 0.000000
vn -0.951056 0.000000 0.309017
vn -0.951056 0.000000 0.309017
vn -0.809016 0.000000 0.587786
vn -0.809016 0.000000 0.587786
vn -0.587786 0.000000 0.809017
vn -0.587786 0.000000 0.809017
vn -0.309018 0.000000 0.951056
vn -0.309018 0.000000 0.951056
vn 0.000001 0.000000 1.000000
vn 0.000001 0.000000 1.000000
vn 0.309017 0.000000 0.951056
vn 0.309017 0.000000 0.951056
vn 0.587785 0.000000 0.809017
vn 0.587785 0.000000 0.809017
vn 0.809017 0.000000 0.587785
vn 0.809017 0.000000 0.587785
vn 0.951056 0.000000 0.309018
vn 0.951056 0.000000 0.309018
vn 1.000000 0.000000 0.000002
vn 1.000000 0.000000 0.000002
vn 0.096343 -0.990675 -0.096343
vn 0.134573 -0.990674 -0.021314
vn 0.000000 -1.000000 0.000000
vn 0.021314 -0.990674 -0.134573
vn -0.061856 -0.990674 -0.121400
vn -0.121400 -0.990674 -0.061856
vn -0.134573 -0.990674 0.021314
vn -0.096343 -0.990675 0.096343
vn -0.021314 -0.990674 0.134573
vn 0.061856 -0.990674 0.121400
vn 0.121400 -0.990674 0.061856
vn 0.236379 0.970939 -0.037439
vn 0.169229 0.970939 -0.169229
vn 0.000000 1.000000 0.000000
vn 0.037439 0.970939 -0.236379
vn -0.108652 0.970939 -0.213241
vn -0.213241 0.970939 -0.108651
vn -0.236379 0.970939 0.037439
vn -0.169229 0.970939 0.169229
vn -0.037439 0.970939 0.236379
vn 0.108652 0.970939 0.213241
vn 0.213241 0.970939 0.108652
s 1
g coin:pCylinder2bonuses
usemtl initialShadingGroup
f 1/1/1 2/2/2 22/3/3 21/4/4
f 2/2/2 3/5/5 23/6/6 22/3/3
f 3/5/5 4/7/7 24/8/8 23/6/6
f 4/7/7 5/9/9 25/10/10 24/8/8
f 5/9/9 6/11/11 26/12/12 25/10/10
f 6/11/11 7/13/13 27/14/14 26/12/12
f 7/13/13 8/15/15 28/16/16 27/14/14
f 8/15/15 9/17/17 29/18/18 28/16/16
f 9/17/17 10/19/19 30/20/20 29/18/18
f 10/19/19 11/21/21 31/22/22 30/20/20
f 11/21/21 12/23/23 32/24/24 31/22/22
f 12/23/23 13/25/25 33/26/26 32/24/24
f 13/25/25 14/27/27 34/28/28 33/26/26
f 14/27/27 15/29/29 35/30/30 34/28/28
f 15/29/29 16/31/31 36/32/32 35/30/30
f 16/31/31 17/33/33 37/34/34 36/32/32
f 17/33/33 18/35/35 38/36/36 37/34/34
f 18/35/35 19/37/37 39/38/38 38/36/36
f 19/37/37 20/39/39 40/40/40 39/38/38
f 20/39/39 1/41/1 21/42/4 40/40/40
f 62/43/41 53/44/42 41/45/43
f 61/46/44 62/43/41 41/45/43
f 60/47/45 61/46/44 41/45/43
f 59/48/46 60/47/45 41/45/43
f 58/49/47 59/48/46 41/45/43
f 57/50/48 58/49/47 41/45/43
f 56/51/49 57/50/48 41/45/43
f 55/52/50 56/51/49 41/45/43
f 54/53/51 55/52/50 41/45/43
f 53/44/42 54/53/51 41/45/43
f 52/54/52 43/55/53 42/56/54
f 43/55/53 44/57/55 42/56/54
f 44/57/55 45/58/56 42/56/54
f 45/58/56 46/59/57 42/56/54
f 46/59/57 47/60/58 42/56/54
f 47/60/58 48/61/59 42/56/54
f 48/61/59 49/62/60 42/56/54
f 49/62/60 50/63/61 42/56/54
f 50/63/61 51/64/62 42/56/54
f 51/64/62 52/54/52 42/56/54
f 21/65/4 22/66/3 43/55/53 52/54/52
f 22/66/3 23/67/6 43/55/53
f 23/67/6 24/68/8 44/57/55 43/55/53
f 24/68/8 25/69/10 44/57/55
f 25/69/10 26/70/12 45/58/56 44/57/55
f 26/70/12 27/71/14 45/58/56
f 27/71/14 28/72/16 46/59/57 45/58/56
f 28/72/16 29/73/18 46/59/57
f 29/73/18 30/74/20 47/60/58 46/59/57
f 30/74/20 31/75/22 47/60/58
f 31/75/22 32/76/24 48/61/59 47/60/58
f 32/76/24 33/77/26 48/61/59
f 33/77/26 34/78/28 49/62/60 48/61/59
f 34/78/28 35/79/30 49/62/60
f 35/79/30 36/80/32 50/63/61 49/62/60
f 36/80/32 37/81/34 50/63/61
f 37/81/34 38/82/36 51/64/62 50/63/61
f 38/82/36 39/83/38 51/64/62
f 39/83/38 40/84/40 52/54/52 51/64/62
f 40/84/40 21/65/4 52/54/52
f 1/85/1 20/86/39 53/44/42
f 20/86/39 19/87/37 54/53/51 53/44/42
f 19/87/37 18/88/35 54/53/51
f 18/88/35 17/89/33 55/52/50 54/53/51
f 17/89/33 16/90/31 55/52/50
f 16/90/31 15/91/29 56/51/49 55/52/50
f 15/91/29 14/92/27 56/51/49
f 14/92/27 13/93/25 57/50/48 56/51/49
f 13/93/25 12/94/23 57/50/48
f 12/94/23 11/95/21 58/49/47 57/50/48
f 11/95/21 10/96/19 58/49/47
f 10/96/19 9/97/17 59/48/46 58/49/47
f 9/97/17 8/98/15 59/48/46
f 8/98/15 7/99/13 60/47/45 59/48/46
f 7/99/13 6/100/11 60/47/45
f 6/100/11 5/101/9 61/46/44 60/47/45
f 5/101/9 4/102/7 61/46/44
f 4/102/7 3/103/5 62/43/41 61/46/44
f 3/103/5 2/104/2 62/43/41
f 2/104/2 1/85/1 53/44/42 62/43/41
