# This file uses centimeters as units for non-parametric coordinates.

mtllib Pryanic.mtl
g default
v -0.913809 0.270208 0.020573
v -0.961913 0.339713 0.020573
v -1.036397 0.376265 0.020573
v -1.119668 0.383029 0.020573
v -1.183288 0.355848 0.020573
v -1.235106 0.304775 0.020573
v -1.256261 0.238112 0.020573
v -1.251128 0.172780 0.020573
v -1.223616 0.128310 0.020573
v -0.890356 0.197955 0.020573
v -1.044482 -0.258575 0.020573
v -1.175331 -0.086878 0.020573
v -1.031164 -0.258895 0.020573
v -0.891519 -0.432448 0.020573
v -1.092681 -0.410650 0.020573
v -1.210301 -0.394325 0.020573
v -0.869449 -0.000587 0.020573
v -1.195678 0.090673 0.020573
v -0.824208 0.079280 0.020573
v -1.256126 0.069649 0.020573
v -1.226363 -0.038485 0.020573
v -0.834714 0.221071 0.020573
v -0.768589 0.155405 0.020573
v -1.343515 0.021767 0.020573
v -1.331436 -0.041282 0.020573
v -0.904288 -0.441445 0.020573
v -1.351825 0.003234 0.020573
v -0.791459 0.196331 0.020573
v -1.309802 0.046608 0.020573
v -1.303761 -0.050504 0.020573
v -1.197741 -0.406149 0.020573
v -1.105113 -0.419243 0.020573
v -1.185553 -0.047931 0.020573
v -0.890356 0.197955 0.075898
v -0.913808 0.270208 0.075898
v -1.183288 0.355848 0.075898
v -1.235107 0.304775 0.075898
v -0.961913 0.339713 0.075898
v -1.119668 0.383029 0.075898
v -1.256261 0.238112 0.075898
v -0.891519 -0.432448 0.075898
v -1.031164 -0.258895 0.075898
v -0.904288 -0.441445 0.075898
v -0.869449 -0.000587 0.075898
v -1.036397 0.376265 0.075898
v -1.251128 0.172780 0.075898
v -1.223616 0.128310 0.075898
v -1.195678 0.090673 0.075898
v -0.824208 0.079280 0.075898
v -0.791459 0.196331 0.075898
v -0.768589 0.155405 0.075898
v -0.834715 0.221071 0.075898
v -1.175331 -0.086878 0.075898
v -1.044482 -0.258575 0.075898
v -1.185553 -0.047931 0.075898
v -1.256126 0.069649 0.075898
v -1.226363 -0.038485 0.075898
v -1.309802 0.046608 0.075898
v -1.351825 0.003234 0.075898
v -1.331436 -0.041282 0.075898
v -1.303761 -0.050504 0.075898
v -1.343515 0.021767 0.075898
v -1.105113 -0.419243 0.075898
v -1.197741 -0.406149 0.075898
v -1.092681 -0.410650 0.075898
v -1.210301 -0.394325 0.075898
v -0.993856 -0.422592 0.020573
v -0.981850 -0.437708 0.020573
v -0.981850 -0.437708 0.075898
v -0.993856 -0.422592 0.075898
vt 0.266085 0.907321
vt 0.266085 0.885482
vt 0.295592 0.885482
vt 0.295592 0.907321
vt 0.110061 0.907321
vt 0.110061 0.885482
vt 0.138229 0.885482
vt 0.138229 0.907321
vt 0.082937 0.907321
vt 0.082937 0.885482
vt 0.296173 0.166667
vt 0.317799 0.166666
vt 0.317799 0.342352
vt 0.296173 0.342352
vt 0.232488 0.907321
vt 0.232488 0.885482
vt 0.199061 0.907321
vt 0.199061 0.885482
vt 0.165509 0.907321
vt 0.165509 0.885482
vt 0.057141 0.907321
vt 0.057141 0.885482
vt 0.036506 0.907321
vt 0.036506 0.885482
vt 0.018080 0.907321
vt 0.018080 0.885482
vt 0.296173 0.129510
vt 0.317799 0.129510
vt 0.296173 0.091506
vt 0.317799 0.091506
vt 0.296173 0.072669
vt 0.317799 0.072669
vt 0.296173 0.052843
vt 0.317799 0.052843
vt 0.296173 0.029448
vt 0.317799 0.029448
vt 0.256327 0.254462
vt 0.278075 0.254462
vt 0.278075 0.270129
vt 0.256327 0.270129
vt 0.296173 0.450315
vt 0.317799 0.450318
vt 0.317799 0.455335
vt 0.296173 0.455336
vt 0.256327 0.396997
vt 0.278075 0.396997
vt 0.278075 0.421955
vt 0.256327 0.421955
vt 0.278075 0.286416
vt 0.256327 0.286416
vt 0.256327 0.373390
vt 0.278075 0.373390
vt 0.256327 0.328635
vt 0.278075 0.328635
vt 0.278075 0.348135
vt 0.256327 0.348135
vt 0.256327 0.317116
vt 0.278075 0.317116
vt 0.278075 0.356308
vt 0.256327 0.356308
vt 0.256327 0.089118
vt 0.278075 0.089118
vt 0.278075 0.126633
vt 0.256327 0.126633
vt 0.256327 0.083035
vt 0.278075 0.083035
vt 0.256327 0.018744
vt 0.278075 0.018744
vt 0.256327 0.133438
vt 0.278075 0.133438
vt 0.296173 0.386687
vt 0.296173 0.379251
vt 0.317799 0.379253
vt 0.317799 0.386682
vt 0.296173 0.348642
vt 0.317799 0.348642
vt 0.144574 0.349992
vt 0.138101 0.353514
vt 0.162285 0.217902
vt 0.097998 0.349165
vt 0.093705 0.344263
vt 0.089529 0.275661
vt 0.244976 0.199705
vt 0.231618 0.215860
vt 0.243578 0.191103
vt 0.232316 0.177037
vt 0.219169 0.216612
vt 0.188511 0.203203
vt 0.212509 0.161571
vt 0.189645 0.146312
vt 0.170655 0.202787
vt 0.019208 0.073859
vt 0.033025 0.059323
vt 0.034134 0.111336
vt 0.053606 0.053644
vt 0.074244 0.069137
vt 0.044336 0.149348
vt 0.011241 0.336754
vt 0.006906 0.331622
vt 0.043964 0.343611
vt 0.050616 0.338608
vt 0.083933 0.274367
vt 0.091693 0.041614
vt 0.119090 0.017870
vt 0.153921 0.010650
vt 0.189221 0.016737
vt 0.212745 0.034817
vt 0.228837 0.061554
vt 0.205256 0.133645
vt 0.221412 0.118096
vt 0.230510 0.091499
vt 0.012942 0.687585
vt 0.110006 0.596798
vt 0.013755 0.694950
vt 0.040395 0.725029
vt 0.046854 0.725682
vt 0.104969 0.689381
vt 0.077393 0.518176
vt 0.085270 0.514433
vt 0.071661 0.538414
vt 0.103215 0.515699
vt 0.078141 0.549136
vt 0.106798 0.566762
vt 0.127183 0.523115
vt 0.152803 0.533079
vt 0.117510 0.581217
vt 0.310477 0.630860
vt 0.271091 0.640261
vt 0.314397 0.611109
vt 0.307145 0.590973
vt 0.282514 0.583032
vt 0.234054 0.653776
vt 0.099879 0.788220
vt 0.075557 0.765396
vt 0.106557 0.788835
vt 0.075842 0.757111
vt 0.109235 0.693195
vt 0.294969 0.552879
vt 0.298600 0.516753
vt 0.284422 0.484058
vt 0.259080 0.458653
vt 0.154150 0.512989
vt 0.230710 0.449823
vt 0.199539 0.452091
vt 0.157541 0.490786
vt 0.174057 0.467996
vn 0.160223 0.080878 -0.983762
vn 0.160223 0.080878 0.983762
vn 0.033353 0.053686 -0.998001
vn 0.033353 0.053686 0.998001
vn -0.389431 0.241369 -0.888867
vn -0.315995 0.195854 0.928326
vn -0.184677 0.272431 -0.944286
vn -0.151579 0.223606 0.962821
vn -0.918115 0.111443 -0.380323
vn -0.918116 0.111443 0.380321
vn 0.224605 -0.029544 -0.974002
vn 0.224605 -0.029544 0.974002
vn 0.534979 -0.042278 -0.843807
vn 0.534979 -0.042278 0.843807
vn 0.124193 0.143552 -0.981819
vn 0.124193 0.143552 0.981819
vn 0.051020 0.185811 -0.981260
vn 0.051019 0.185811 0.981260
vn -0.031272 0.224988 -0.973859
vn -0.029646 0.213288 0.976539
vn -0.641290 -0.190661 -0.743233
vn -0.641291 -0.190661 0.743232
vn -0.224242 -0.151441 -0.962695
vn -0.441566 -0.298209 0.846221
vn -0.041045 0.022747 -0.998898
vn -0.041500 0.022999 0.998874
vn 0.402419 -0.260193 -0.877701
vn 0.402420 -0.260193 0.877700
vn 0.766338 -0.214411 -0.605602
vn 0.766339 -0.214411 0.605601
vn 0.356296 0.358793 -0.862740
vn 0.356294 0.358792 0.862741
vn 0.007805 0.475186 -0.879851
vn 0.007804 0.475186 0.879851
vn -0.206342 0.014742 -0.978369
vn -0.206342 0.014742 0.978369
vn -0.054866 -0.057858 -0.996816
vn -0.054866 -0.057858 0.996816
vn -0.103470 -0.031938 -0.994120
vn -0.103470 -0.031938 0.994120
vn 0.090767 -0.036794 -0.995192
vn 0.090767 -0.036794 0.995192
vn -0.162508 0.420876 -0.892443
vn -0.162508 0.420875 0.892443
vn 0.008945 -0.410901 -0.911636
vn 0.008945 -0.410902 0.911636
vn -0.232191 0.423775 -0.875501
vn -0.232191 0.423773 0.875502
vn -0.557065 -0.498253 -0.664397
vn -0.557070 -0.498254 0.664392
vn -0.938880 -0.179875 -0.293512
vn -0.938880 -0.179874 0.293511
vn 0.014291 -0.536877 -0.843539
vn 0.014288 -0.536877 0.843539
vn -0.503045 0.487376 -0.713730
vn -0.503044 0.487375 0.713731
vn -0.009088 -0.212113 -0.977203
vn -0.009088 -0.212113 0.977203
vn -0.040378 -0.170445 -0.984540
vn -0.040378 -0.170445 0.984540
vn 0.482285 -0.182000 -0.856900
vn 0.482285 -0.182000 0.856900
vn -0.944422 0.066291 -0.321983
vn -0.944422 0.066291 0.321983
vn -0.432298 -0.119221 -0.893815
vn -0.191094 -0.907885 -0.373133
vn -0.432297 -0.119221 0.893815
vn -0.191093 -0.907884 0.373135
vn 0.056592 -0.971814 -0.228857
vn 0.056593 -0.971813 0.228859
s 1
g pryanic_lp:lp bonuses
usemtl pryanic_lp:lpSG
f 1/1/1 35/2/2 10/4/3
f 10/4/3 35/2/2 34/3/4
f 6/5/5 37/6/6 5/8/7
f 5/8/7 37/6/6 36/7/8
f 7/9/9 40/10/10 6/5/5
f 6/5/5 40/10/10 37/6/6
f 17/11/11 44/12/12 14/14/13
f 14/14/13 44/12/12 41/13/14
f 2/15/15 38/16/16 1/1/1
f 1/1/1 38/16/16 35/2/2
f 3/17/17 45/18/18 2/15/15
f 2/15/15 45/18/18 38/16/16
f 4/19/19 39/20/20 3/17/17
f 3/17/17 39/20/20 45/18/18
f 5/8/7 36/7/8 4/19/19
f 4/19/19 36/7/8 39/20/20
f 8/21/21 46/22/22 7/9/9
f 7/9/9 46/22/22 40/10/10
f 9/23/23 47/24/24 8/21/21
f 8/21/21 47/24/24 46/22/22
f 18/25/25 48/26/26 9/23/23
f 9/23/23 48/26/26 47/24/24
f 19/27/27 49/28/28 17/11/11
f 17/11/11 49/28/28 44/12/12
f 23/29/29 51/30/30 19/27/27
f 19/27/27 51/30/30 49/28/28
f 28/31/31 50/32/32 23/29/29
f 23/29/29 50/32/32 51/30/30
f 22/33/33 52/34/34 28/31/31
f 28/31/31 52/34/34 50/32/32
f 10/35/3 34/36/4 22/33/33
f 22/33/33 34/36/4 52/34/34
f 12/37/35 53/38/36 33/40/37
f 33/40/37 53/38/36 55/39/38
f 13/41/39 42/42/40 11/44/41
f 11/44/41 42/42/40 54/43/42
f 20/45/43 56/46/44 18/48/25
f 18/48/25 56/46/44 48/47/26
f 33/40/37 55/39/38 21/50/45
f 21/50/45 55/39/38 57/49/46
f 29/51/47 58/52/48 20/45/43
f 20/45/43 58/52/48 56/46/44
f 25/53/49 60/54/50 27/56/51
f 27/56/51 60/54/50 59/55/52
f 30/57/53 61/58/54 25/53/49
f 25/53/49 61/58/54 60/54/50
f 21/50/45 57/49/46 30/57/53
f 30/57/53 57/49/46 61/58/54
f 27/56/51 59/55/52 24/60/55
f 24/60/55 59/55/52 62/59/56
f 24/60/55 62/59/56 29/51/47
f 29/51/47 62/59/56 58/52/48
f 32/61/57 63/62/58 31/64/59
f 31/64/59 63/62/58 64/63/60
f 15/65/61 65/66/62 32/61/57
f 32/61/57 65/66/62 63/62/58
f 11/67/41 54/68/42 15/65/61
f 15/65/61 54/68/42 65/66/62
f 16/69/63 66/70/64 12/37/35
f 12/37/35 66/70/64 53/38/36
f 31/64/59 64/63/60 16/69/63
f 16/69/63 64/63/60 66/70/64
f 67/71/65 68/72/66 70/74/67
f 70/74/67 68/72/66 69/73/68
f 67/71/65 70/74/67 13/41/39
f 13/41/39 70/74/67 42/42/40
f 26/75/69 43/76/70 68/72/66
f 68/72/66 43/76/70 69/73/68
f 26/75/69 14/14/13 43/76/70
f 43/76/70 14/14/13 41/13/14
f 66/77/64 64/78/60 53/79/36
f 64/78/60 63/80/58 53/79/36
f 63/80/58 65/81/62 53/79/36
f 65/81/62 54/82/42 53/79/36
f 59/83/52 60/84/50 62/85/56
f 62/85/56 60/84/50 58/86/48
f 60/84/50 61/87/54 58/86/48
f 61/87/54 57/88/46 58/86/48
f 58/86/48 57/88/46 56/89/44
f 56/89/44 57/88/46 48/90/26
f 57/88/46 55/91/38 48/90/26
f 51/92/30 50/93/32 49/94/28
f 50/93/32 52/95/34 49/94/28
f 52/95/34 34/96/4 49/94/28
f 49/94/28 34/96/4 44/97/12
f 43/98/70 41/99/14 69/100/68
f 69/100/68 41/99/14 70/101/67
f 70/101/67 41/99/14 42/102/40
f 41/99/14 44/97/12 42/102/40
f 42/102/40 44/97/12 54/82/42
f 54/82/42 44/97/12 53/79/36
f 44/97/12 34/96/4 53/79/36
f 53/79/36 34/96/4 55/91/38
f 55/91/38 34/96/4 48/90/26
f 34/96/4 35/103/2 48/90/26
f 35/103/2 38/104/16 48/90/26
f 38/104/16 45/105/18 48/90/26
f 45/105/18 39/106/20 48/90/26
f 39/106/20 36/107/8 48/90/26
f 36/107/8 37/108/6 48/90/26
f 48/90/26 37/108/6 47/109/24
f 47/109/24 37/108/6 46/110/22
f 37/108/6 40/111/10 46/110/22
f 16/112/63 12/113/35 31/114/59
f 31/114/59 12/113/35 32/115/57
f 32/115/57 12/113/35 15/116/61
f 15/116/61 12/113/35 11/117/41
f 27/118/51 24/119/55 25/120/49
f 24/119/55 29/121/47 25/120/49
f 25/120/49 29/121/47 30/122/53
f 30/122/53 29/121/47 21/123/45
f 29/121/47 20/124/43 21/123/45
f 20/124/43 18/125/25 21/123/45
f 21/123/45 18/125/25 33/126/37
f 23/127/29 19/128/27 28/129/31
f 28/129/31 19/128/27 22/130/33
f 22/130/33 19/128/27 10/131/3
f 19/128/27 17/132/11 10/131/3
f 26/133/69 68/134/66 14/135/13
f 68/134/66 67/136/65 14/135/13
f 67/136/65 13/137/39 14/135/13
f 14/135/13 13/137/39 17/132/11
f 13/137/39 11/117/41 17/132/11
f 11/117/41 12/113/35 17/132/11
f 17/132/11 12/113/35 10/131/3
f 12/113/35 33/126/37 10/131/3
f 33/126/37 18/125/25 10/131/3
f 10/131/3 18/125/25 1/138/1
f 1/138/1 18/125/25 2/139/15
f 2/139/15 18/125/25 3/140/17
f 3/140/17 18/125/25 4/141/19
f 18/125/25 9/142/23 4/141/19
f 4/141/19 9/142/23 5/143/7
f 5/143/7 9/142/23 6/144/5
f 9/142/23 8/145/21 6/144/5
f 8/145/21 7/146/9 6/144/5
