# This file uses centimeters as units for non-parametric coordinates.

mtllib pryanic.mtl
g default
v 0.176612 0.270208 0.020573
v 0.128508 0.339713 0.020573
v 0.054024 0.376265 0.020573
v -0.029247 0.383029 0.020573
v -0.092867 0.355848 0.020573
v -0.144686 0.304775 0.020573
v -0.165840 0.238112 0.020573
v -0.160707 0.172780 0.020573
v -0.133195 0.128310 0.020573
v 0.200065 0.197955 0.020573
v 0.045939 -0.258575 0.020573
v -0.084910 -0.086878 0.020573
v 0.059257 -0.258895 0.020573
v 0.198902 -0.432448 0.020573
v -0.002261 -0.410650 0.020573
v -0.119880 -0.394325 0.020573
v 0.220972 -0.000587 0.020573
v -0.105257 0.090673 0.020573
v 0.266213 0.079280 0.020573
v -0.165705 0.069649 0.020573
v -0.135942 -0.038485 0.020573
v 0.255706 0.221071 0.020573
v 0.321832 0.155405 0.020573
v -0.253094 0.021767 0.020573
v -0.241015 -0.041282 0.020573
v 0.186132 -0.441445 0.020573
v -0.261404 0.003234 0.020573
v 0.298962 0.196331 0.020573
v -0.219381 0.046608 0.020573
v -0.213340 -0.050504 0.020573
v -0.107321 -0.406149 0.020573
v -0.014692 -0.419243 0.020573
v -0.095133 -0.047931 0.020573
v 0.200065 0.197955 0.075898
v 0.176613 0.270208 0.075898
v -0.092867 0.355848 0.075898
v -0.144686 0.304775 0.075898
v 0.128508 0.339713 0.075898
v -0.029247 0.383029 0.075898
v -0.165840 0.238112 0.075898
v 0.198902 -0.432448 0.075898
v 0.059257 -0.258895 0.075898
v 0.186133 -0.441445 0.075898
v 0.220972 -0.000587 0.075898
v 0.054024 0.376265 0.075898
v -0.160707 0.172780 0.075898
v -0.133195 0.128310 0.075898
v -0.105257 0.090673 0.075898
v 0.266213 0.079280 0.075898
v 0.298962 0.196331 0.075898
v 0.321832 0.155405 0.075898
v 0.255706 0.221071 0.075898
v -0.084910 -0.086878 0.075898
v 0.045939 -0.258575 0.075898
v -0.095133 -0.047931 0.075898
v -0.165705 0.069649 0.075898
v -0.135942 -0.038485 0.075898
v -0.219381 0.046608 0.075898
v -0.261404 0.003234 0.075898
v -0.241015 -0.041282 0.075898
v -0.213340 -0.050504 0.075898
v -0.253094 0.021767 0.075898
v -0.014692 -0.419243 0.075898
v -0.107321 -0.406149 0.075898
v -0.002261 -0.410650 0.075898
v -0.119880 -0.394325 0.075898
v 0.096565 -0.422592 0.020573
v 0.108571 -0.437708 0.020573
v 0.108571 -0.437708 0.075898
v 0.096565 -0.422592 0.075898
vt 0.266085 0.907321
vt 0.266085 0.885482
vt 0.295592 0.885482
vt 0.295592 0.907321
vt 0.110061 0.907321
vt 0.110061 0.885482
vt 0.138229 0.885482
vt 0.138229 0.907321
vt 0.082937 0.907321
vt 0.082937 0.885482
vt 0.296173 0.166667
vt 0.317799 0.166666
vt 0.317799 0.342352
vt 0.296173 0.342352
vt 0.232488 0.907321
vt 0.232488 0.885482
vt 0.199061 0.907321
vt 0.199061 0.885482
vt 0.165509 0.907321
vt 0.165509 0.885482
vt 0.057141 0.907321
vt 0.057141 0.885482
vt 0.036506 0.907321
vt 0.036506 0.885482
vt 0.018080 0.907321
vt 0.018080 0.885482
vt 0.296173 0.129510
vt 0.317799 0.129510
vt 0.296173 0.091506
vt 0.317799 0.091506
vt 0.296173 0.072669
vt 0.317799 0.072669
vt 0.296173 0.052843
vt 0.317799 0.052843
vt 0.296173 0.029448
vt 0.317799 0.029448
vt 0.256327 0.254462
vt 0.278075 0.254462
vt 0.278075 0.270129
vt 0.256327 0.270129
vt 0.296173 0.450315
vt 0.317799 0.450318
vt 0.317799 0.455335
vt 0.296173 0.455336
vt 0.256327 0.396997
vt 0.278075 0.396997
vt 0.278075 0.421955
vt 0.256327 0.421955
vt 0.278075 0.286416
vt 0.256327 0.286416
vt 0.256327 0.373390
vt 0.278075 0.373390
vt 0.256327 0.328635
vt 0.278075 0.328635
vt 0.278075 0.348135
vt 0.256327 0.348135
vt 0.256327 0.317116
vt 0.278075 0.317116
vt 0.278075 0.356308
vt 0.256327 0.356308
vt 0.256327 0.089118
vt 0.278075 0.089118
vt 0.278075 0.126633
vt 0.256327 0.126633
vt 0.256327 0.083035
vt 0.278075 0.083035
vt 0.256327 0.018744
vt 0.278075 0.018744
vt 0.256327 0.133438
vt 0.278075 0.133438
vt 0.296173 0.386687
vt 0.296173 0.379251
vt 0.317799 0.379253
vt 0.317799 0.386682
vt 0.296173 0.348642
vt 0.317799 0.348642
vt 0.144574 0.349992
vt 0.138101 0.353514
vt 0.162285 0.217902
vt 0.097998 0.349165
vt 0.093705 0.344263
vt 0.089529 0.275661
vt 0.244976 0.199705
vt 0.231618 0.215860
vt 0.243578 0.191103
vt 0.232316 0.177037
vt 0.219169 0.216612
vt 0.188511 0.203203
vt 0.212509 0.161571
vt 0.189645 0.146312
vt 0.170655 0.202787
vt 0.019208 0.073859
vt 0.033025 0.059323
vt 0.034134 0.111336
vt 0.053606 0.053644
vt 0.074244 0.069137
vt 0.044336 0.149348
vt 0.011241 0.336754
vt 0.006906 0.331622
vt 0.043964 0.343611
vt 0.050616 0.338608
vt 0.083933 0.274367
vt 0.091693 0.041614
vt 0.119090 0.017870
vt 0.153921 0.010650
vt 0.189221 0.016737
vt 0.212745 0.034817
vt 0.228837 0.061554
vt 0.205256 0.133645
vt 0.221412 0.118096
vt 0.230510 0.091499
vt 0.012942 0.687585
vt 0.110006 0.596798
vt 0.013755 0.694950
vt 0.040395 0.725029
vt 0.046854 0.725682
vt 0.104969 0.689381
vt 0.077393 0.518176
vt 0.085270 0.514433
vt 0.071661 0.538414
vt 0.103215 0.515699
vt 0.078141 0.549136
vt 0.106798 0.566762
vt 0.127183 0.523115
vt 0.152803 0.533079
vt 0.117510 0.581217
vt 0.310477 0.630860
vt 0.271091 0.640261
vt 0.314397 0.611109
vt 0.307145 0.590973
vt 0.282514 0.583032
vt 0.234054 0.653776
vt 0.099879 0.788220
vt 0.075557 0.765396
vt 0.106557 0.788835
vt 0.075842 0.757111
vt 0.109235 0.693195
vt 0.294969 0.552879
vt 0.298600 0.516753
vt 0.284422 0.484058
vt 0.259080 0.458653
vt 0.154150 0.512989
vt 0.230710 0.449823
vt 0.199539 0.452091
vt 0.157541 0.490786
vt 0.174057 0.467996
vn 0.892713 0.450625 -0.000002
vn 0.892713 0.450625 -0.000002
vn 0.527710 0.849425 -0.000002
vn 0.527710 0.849425 -0.000002
vn -0.849979 0.526817 -0.000002
vn -0.849979 0.526817 -0.000002
vn -0.561113 0.827739 -0.000001
vn -0.561113 0.827739 -0.000001
vn -0.992714 0.120498 -0.000003
vn -0.992714 0.120498 -0.000003
vn -0.849979 0.526817 -0.000002
vn -0.849979 0.526817 -0.000002
vn 0.991460 -0.130413 -0.000002
vn 0.991460 -0.130413 -0.000002
vn 0.996892 -0.078782 -0.000002
vn 0.996892 -0.078782 -0.000002
vn 0.654270 0.756261 -0.000002
vn 0.654270 0.756261 -0.000002
vn 0.892713 0.450625 -0.000002
vn 0.892713 0.450625 -0.000002
vn 0.264777 0.964310 -0.000001
vn 0.264777 0.964310 -0.000001
vn 0.654270 0.756261 -0.000002
vn 0.654270 0.756261 -0.000002
vn -0.137672 0.990478 0.000000
vn -0.137672 0.990478 0.000000
vn 0.264777 0.964310 -0.000001
vn 0.264777 0.964310 -0.000001
vn -0.561113 0.827739 -0.000001
vn -0.561113 0.827739 -0.000001
vn -0.137672 0.990478 0.000000
vn -0.137672 0.990478 0.000000
vn -0.958533 -0.284980 -0.000001
vn -0.958533 -0.284980 -0.000001
vn -0.992714 0.120498 -0.000003
vn -0.992714 0.120498 -0.000003
vn -0.828716 -0.559669 0.000000
vn -0.828716 -0.559669 0.000000
vn -0.958533 -0.284980 -0.000001
vn -0.958533 -0.284980 -0.000001
vn -0.874663 0.484731 0.000000
vn -0.874663 0.484731 0.000000
vn -0.828716 -0.559669 0.000000
vn -0.828716 -0.559669 0.000000
vn 0.839757 -0.542962 -0.000002
vn 0.839757 -0.542962 -0.000002
vn 0.991460 -0.130413 -0.000002
vn 0.991460 -0.130413 -0.000002
vn 0.963017 -0.269441 -0.000002
vn 0.963017 -0.269441 -0.000002
vn 0.839757 -0.542962 -0.000002
vn 0.839757 -0.542962 -0.000002
vn 0.704633 0.709572 0.000000
vn 0.704633 0.709572 0.000000
vn 0.963017 -0.269441 -0.000002
vn 0.963017 -0.269441 -0.000002
vn 0.016423 0.999865 0.000000
vn 0.016421 0.999865 0.000000
vn 0.704633 0.709572 0.000000
vn 0.704633 0.709572 0.000000
vn 0.527710 0.849425 -0.000002
vn 0.527710 0.849425 -0.000002
vn 0.016421 0.999865 0.000000
vn 0.016423 0.999865 0.000000
vn -0.997458 0.071261 0.000000
vn -0.997458 0.071261 0.000000
vn -0.688095 -0.725621 -0.000002
vn -0.688094 -0.725622 -0.000002
vn -0.955517 -0.294935 -0.000001
vn -0.955517 -0.294935 -0.000001
vn 0.926750 -0.375678 0.000000
vn 0.926750 -0.375678 0.000000
vn -0.360200 0.932875 0.000000
vn -0.360200 0.932875 0.000000
vn -0.874663 0.484731 0.000000
vn -0.874663 0.484731 0.000000
vn -0.688094 -0.725622 -0.000002
vn -0.688095 -0.725621 -0.000002
vn 0.021763 -0.999763 -0.000003
vn 0.021763 -0.999763 -0.000003
vn -0.480513 0.876988 0.000000
vn -0.480513 0.876988 0.000000
vn -0.360200 0.932875 0.000000
vn -0.360200 0.932875 0.000000
vn -0.745357 -0.666666 -0.000003
vn -0.745357 -0.666666 -0.000003
vn -0.982138 -0.188162 -0.000003
vn -0.982138 -0.188162 -0.000003
vn 0.026606 -0.999646 -0.000003
vn 0.026607 -0.999646 -0.000003
vn -0.745357 -0.666666 -0.000003
vn -0.745357 -0.666666 -0.000003
vn 0.021763 -0.999763 -0.000003
vn 0.021763 -0.999763 -0.000003
vn 0.026607 -0.999646 -0.000003
vn 0.026606 -0.999646 -0.000003
vn -0.982138 -0.188162 -0.000003
vn -0.982138 -0.188162 -0.000003
vn -0.718204 0.695833 0.000000
vn -0.718204 0.695833 0.000000
vn -0.718204 0.695833 0.000000
vn -0.718204 0.695833 0.000000
vn -0.480513 0.876988 0.000000
vn -0.480513 0.876988 0.000000
vn -0.042805 -0.999083 0.000000
vn -0.042805 -0.999083 0.000000
vn -0.230519 -0.973068 0.000000
vn -0.230519 -0.973068 0.000000
vn 0.935599 -0.353065 0.000000
vn 0.935599 -0.353065 0.000000
vn -0.042805 -0.999083 0.000000
vn -0.042805 -0.999083 0.000000
vn 0.926750 -0.375678 0.000000
vn 0.926750 -0.375678 0.000000
vn 0.935599 -0.353065 0.000000
vn 0.935599 -0.353065 0.000000
vn -0.997546 0.070020 0.000000
vn -0.997546 0.070020 0.000000
vn -0.997458 0.071261 0.000000
vn -0.997458 0.071261 0.000000
vn -0.230519 -0.973068 0.000000
vn -0.230519 -0.973068 0.000000
vn -0.997546 0.070020 0.000000
vn -0.997546 0.070020 0.000000
vn -0.964011 -0.265861 -0.000001
vn -0.205969 -0.978559 0.000000
vn -0.205969 -0.978559 0.000000
vn -0.964011 -0.265861 -0.000001
vn -0.964011 -0.265861 -0.000001
vn -0.964011 -0.265861 -0.000001
vn -0.955517 -0.294935 -0.000001
vn -0.955517 -0.294935 -0.000001
vn 0.058135 -0.998309 0.000000
vn 0.058136 -0.998309 0.000000
vn -0.205969 -0.978559 0.000000
vn -0.205969 -0.978559 0.000000
vn 0.058135 -0.998309 0.000000
vn 0.996892 -0.078782 -0.000002
vn 0.996892 -0.078782 -0.000002
vn 0.058136 -0.998309 0.000000
vn 0.000000 0.000000 1.000000
vn 0.000000 0.000000 1.000000
vn 0.000000 0.000000 1.000000
vn 0.000000 0.000000 1.000000
vn 0.000000 0.000000 1.000000
vn 0.000000 0.000000 1.000000
vn 0.000000 0.000000 1.000000
vn 0.000000 0.000000 1.000000
vn 0.000000 0.000000 1.000000
vn 0.000000 0.000000 1.000000
vn 0.000000 0.000000 1.000000
vn 0.000000 0.000000 1.000000
vn 0.000005 -0.000002 1.000000
vn -0.000005 -0.000001 1.000000
vn 0.000002 -0.000002 1.000000
vn 0.000002 -0.000002 1.000000
vn -0.000005 -0.000001 1.000000
vn 0.000000 0.000000 1.000000
vn -0.000005 -0.000001 1.000000
vn -0.000001 0.000000 1.000000
vn 0.000000 0.000000 1.000000
vn -0.000001 0.000000 1.000000
vn 0.000000 0.000000 1.000000
vn 0.000000 0.000000 1.000000
vn 0.000000 0.000000 1.000000
vn 0.000000 0.000000 1.000000
vn 0.000000 0.000000 1.000000
vn 0.000000 0.000000 1.000000
vn 0.000000 0.000000 1.000000
vn 0.000000 0.000000 1.000000
vn 0.000000 0.000000 1.000000
vn 0.000000 0.000000 1.000000
vn 0.000000 0.000000 1.000000
vn 0.000000 0.000000 1.000000
vn 0.000000 0.000000 1.000000
vn 0.000000 0.000000 1.000000
vn 0.000000 0.000000 1.000000
vn 0.000000 0.000000 1.000000
vn 0.000000 0.000000 1.000000
vn 0.000000 0.000000 1.000000
vn 0.000000 0.000000 1.000000
vn 0.000000 0.000000 1.000000
vn 0.000000 0.000000 1.000000
vn 0.000000 0.000000 1.000000
vn 0.000000 0.000000 1.000000
vn 0.000000 0.000000 1.000000
vn 0.000000 0.000000 1.000000
vn 0.000000 0.000000 1.000000
vn 0.000000 0.000000 1.000000
vn 0.000000 0.000000 1.000000
vn 0.000000 0.000000 1.000000
vn 0.000000 0.000000 1.000000
vn 0.000000 0.000000 1.000000
vn 0.000000 0.000000 1.000000
vn 0.000000 0.000000 1.000000
vn 0.000000 0.000000 1.000000
vn 0.000000 0.000000 1.000000
vn 0.000000 0.000000 1.000000
vn 0.000000 0.000000 1.000000
vn 0.000000 0.000000 1.000000
vn 0.000000 0.000000 1.000000
vn 0.000000 0.000000 1.000000
vn 0.000000 0.000000 1.000000
vn 0.000000 0.000000 1.000000
vn 0.000000 0.000000 1.000000
vn 0.000000 0.000000 1.000000
vn 0.000000 0.000000 1.000000
vn 0.000000 0.000000 1.000000
vn 0.000000 0.000000 1.000000
vn 0.000000 0.000000 1.000000
vn 0.000000 0.000000 1.000000
vn 0.000000 0.000000 1.000000
vn 0.000000 0.000000 1.000000
vn 0.000000 0.000000 1.000000
vn 0.000000 0.000000 1.000000
vn 0.000000 0.000000 1.000000
vn 0.000000 0.000000 1.000000
vn 0.000000 0.000000 1.000000
vn 0.000000 0.000000 1.000000
vn 0.000000 0.000000 1.000000
vn 0.000000 0.000000 1.000000
vn 0.000000 0.000000 1.000000
vn 0.000000 0.000000 1.000000
vn 0.000000 0.000000 1.000000
vn 0.000000 0.000000 1.000000
vn 0.000000 0.000000 1.000000
vn 0.000000 0.000000 1.000000
vn 0.000000 0.000000 1.000000
vn 0.000000 0.000000 1.000000
vn 0.000000 0.000000 1.000000
vn 0.000000 0.000000 1.000000
vn 0.000000 0.000000 1.000000
vn 0.000000 0.000000 1.000000
vn 0.000000 0.000000 1.000000
vn 0.000000 0.000000 1.000000
vn 0.000000 0.000000 1.000000
vn 0.000000 0.000000 1.000000
vn 0.000000 0.000000 1.000000
vn 0.000000 0.000000 1.000000
vn 0.000000 0.000000 -1.000000
vn 0.000000 0.000000 -1.000000
vn 0.000000 0.000000 -1.000000
vn 0.000000 0.000000 -1.000000
vn 0.000000 0.000000 -1.000000
vn 0.000000 0.000000 -1.000000
vn 0.000000 0.000000 -1.000000
vn 0.000000 0.000000 -1.000000
vn 0.000000 0.000000 -1.000000
vn 0.000000 0.000000 -1.000000
vn 0.000000 0.000000 -1.000000
vn 0.000000 0.000000 -1.000000
vn -0.000004 0.000002 -1.000000
vn -0.000002 0.000002 -1.000000
vn 0.000005 0.000001 -1.000000
vn -0.000002 0.000002 -1.000000
vn 0.000000 0.000000 -1.000000
vn 0.000005 0.000001 -1.000000
vn 0.000005 0.000001 -1.000000
vn 0.000000 0.000000 -1.000000
vn 0.000001 0.000000 -1.000000
vn 0.000001 0.000000 -1.000000
vn 0.000000 0.000000 -1.000000
vn 0.000000 0.000000 -1.000000
vn 0.000000 0.000000 -1.000000
vn 0.000000 0.000000 -1.000000
vn 0.000000 0.000000 -1.000000
vn 0.000000 0.000000 -1.000000
vn 0.000000 0.000000 -1.000000
vn 0.000000 0.000000 -1.000000
vn 0.000000 0.000000 -1.000000
vn 0.000000 0.000000 -1.000000
vn 0.000000 0.000000 -1.000000
vn 0.000000 0.000000 -1.000000
vn 0.000000 0.000000 -1.000000
vn 0.000000 0.000000 -1.000000
vn 0.000000 0.000000 -1.000000
vn 0.000000 0.000000 -1.000000
vn 0.000000 0.000000 -1.000000
vn 0.000000 0.000000 -1.000000
vn 0.000000 0.000000 -1.000000
vn 0.000000 0.000000 -1.000000
vn 0.000000 0.000000 -1.000000
vn 0.000000 0.000000 -1.000000
vn 0.000000 0.000000 -1.000000
vn 0.000000 0.000000 -1.000000
vn 0.000000 0.000000 -1.000000
vn 0.000000 0.000000 -1.000000
vn 0.000000 0.000000 -1.000000
vn 0.000000 0.000000 -1.000000
vn 0.000000 0.000000 -1.000000
vn 0.000000 0.000000 -1.000000
vn 0.000000 0.000000 -1.000000
vn 0.000000 0.000000 -1.000000
vn 0.000000 0.000000 -1.000000
vn 0.000000 0.000000 -1.000000
vn 0.000000 0.000000 -1.000000
vn 0.000000 0.000000 -1.000000
vn 0.000000 0.000000 -1.000000
vn 0.000000 0.000000 -1.000000
vn 0.000000 0.000000 -1.000000
vn 0.000000 0.000000 -1.000000
vn 0.000000 0.000000 -1.000000
vn 0.000000 0.000000 -1.000000
vn 0.000000 0.000000 -1.000000
vn 0.000000 0.000000 -1.000000
vn 0.000000 0.000000 -1.000000
vn 0.000000 0.000000 -1.000000
vn 0.000000 0.000000 -1.000000
vn 0.000000 0.000000 -1.000000
vn 0.000000 0.000000 -1.000000
vn 0.000000 0.000000 -1.000000
vn 0.000000 0.000000 -1.000000
vn 0.000000 0.000000 -1.000000
vn 0.000000 0.000000 -1.000000
vn 0.000000 0.000000 -1.000000
vn 0.000000 0.000000 -1.000000
vn 0.000000 0.000000 -1.000000
vn 0.000000 0.000000 -1.000000
vn 0.000000 0.000000 -1.000000
vn 0.000000 0.000000 -1.000000
vn 0.000000 0.000000 -1.000000
vn 0.000000 0.000000 -1.000000
vn 0.000000 0.000000 -1.000000
vn 0.000000 0.000000 -1.000000
vn 0.000000 0.000000 -1.000000
vn 0.000000 0.000000 -1.000000
vn 0.000000 0.000000 -1.000000
vn 0.000000 0.000000 -1.000000
vn 0.000000 0.000000 -1.000000
vn 0.000000 0.000000 -1.000000
vn 0.000000 0.000000 -1.000000
vn 0.000000 0.000000 -1.000000
vn 0.000000 0.000000 -1.000000
vn 0.000000 0.000000 -1.000000
vn 0.000000 0.000000 -1.000000
vn 0.000000 0.000000 -1.000000
vn 0.000000 0.000000 -1.000000
vn 0.000000 0.000000 -1.000000
s off
g pryanic_lp:lp bonuses
usemtl lambert2SG
f 1/1/1 35/2/2 34/3/3 10/4/4
f 6/5/5 37/6/6 36/7/7 5/8/8
f 7/9/9 40/10/10 37/6/11 6/5/12
f 17/11/13 44/12/14 41/13/15 14/14/16
f 2/15/17 38/16/18 35/2/19 1/1/20
f 3/17/21 45/18/22 38/16/23 2/15/24
f 4/19/25 39/20/26 45/18/27 3/17/28
f 5/8/29 36/7/30 39/20/31 4/19/32
f 8/21/33 46/22/34 40/10/35 7/9/36
f 9/23/37 47/24/38 46/22/39 8/21/40
f 18/25/41 48/26/42 47/24/43 9/23/44
f 19/27/45 49/28/46 44/12/47 17/11/48
f 23/29/49 51/30/50 49/28/51 19/27/52
f 28/31/53 50/32/54 51/30/55 23/29/56
f 22/33/57 52/34/58 50/32/59 28/31/60
f 10/35/61 34/36/62 52/34/63 22/33/64
f 12/37/65 53/38/66 55/39/67 33/40/68
f 13/41/69 42/42/70 54/43/71 11/44/72
f 20/45/73 56/46/74 48/47/75 18/48/76
f 33/40/77 55/39/78 57/49/79 21/50/80
f 29/51/81 58/52/82 56/46/83 20/45/84
f 25/53/85 60/54/86 59/55/87 27/56/88
f 30/57/89 61/58/90 60/54/91 25/53/92
f 21/50/93 57/49/94 61/58/95 30/57/96
f 27/56/97 59/55/98 62/59/99 24/60/100
f 24/60/101 62/59/102 58/52/103 29/51/104
f 32/61/105 63/62/106 64/63/107 31/64/108
f 15/65/109 65/66/110 63/62/111 32/61/112
f 11/67/113 54/68/114 65/66/115 15/65/116
f 16/69/117 66/70/118 53/38/119 12/37/120
f 31/64/121 64/63/122 66/70/123 16/69/124
f 67/71/125 68/72/126 69/73/127 70/74/128
f 67/71/129 70/74/130 42/42/131 13/41/132
f 26/75/133 43/76/134 69/73/135 68/72/136
f 26/75/137 14/14/138 41/13/139 43/76/140
f 66/77/141 64/78/142 53/79/143
f 64/78/144 63/80/145 53/79/146
f 63/80/147 65/81/148 53/79/149
f 65/81/150 54/82/151 53/79/152
f 59/83/153 60/84/154 62/85/155
f 62/85/156 60/84/157 58/86/158
f 60/84/159 61/87/160 58/86/161
f 61/87/162 57/88/163 58/86/164
f 58/86/165 57/88/166 56/89/167
f 56/89/168 57/88/169 48/90/170
f 57/88/171 55/91/172 48/90/173
f 51/92/174 50/93/175 49/94/176
f 50/93/177 52/95/178 49/94/179
f 52/95/180 34/96/181 49/94/182
f 49/94/183 34/96/184 44/97/185
f 43/98/186 41/99/187 69/100/188
f 69/100/189 41/99/190 70/101/191
f 70/101/192 41/99/193 42/102/194
f 41/99/195 44/97/196 42/102/197
f 42/102/198 44/97/199 54/82/200
f 54/82/201 44/97/202 53/79/203
f 44/97/204 34/96/205 53/79/206
f 53/79/207 34/96/208 55/91/209
f 55/91/210 34/96/211 48/90/212
f 34/96/213 35/103/214 48/90/215
f 35/103/216 38/104/217 48/90/218
f 38/104/219 45/105/220 48/90/221
f 45/105/222 39/106/223 48/90/224
f 39/106/225 36/107/226 48/90/227
f 36/107/228 37/108/229 48/90/230
f 48/90/231 37/108/232 47/109/233
f 47/109/234 37/108/235 46/110/236
f 37/108/237 40/111/238 46/110/239
f 16/112/240 12/113/241 31/114/242
f 31/114/243 12/113/244 32/115/245
f 32/115/246 12/113/247 15/116/248
f 15/116/249 12/113/250 11/117/251
f 27/118/252 24/119/253 25/120/254
f 24/119/255 29/121/256 25/120/257
f 25/120/258 29/121/259 30/122/260
f 30/122/261 29/121/262 21/123/263
f 29/121/264 20/124/265 21/123/266
f 20/124/267 18/125/268 21/123/269
f 21/123/270 18/125/271 33/126/272
f 23/127/273 19/128/274 28/129/275
f 28/129/276 19/128/277 22/130/278
f 22/130/279 19/128/280 10/131/281
f 19/128/282 17/132/283 10/131/284
f 26/133/285 68/134/286 14/135/287
f 68/134/288 67/136/289 14/135/290
f 67/136/291 13/137/292 14/135/293
f 14/135/294 13/137/295 17/132/296
f 13/137/297 11/117/298 17/132/299
f 11/117/300 12/113/301 17/132/302
f 17/132/303 12/113/304 10/131/305
f 12/113/306 33/126/307 10/131/308
f 33/126/309 18/125/310 10/131/311
f 10/131/312 18/125/313 1/138/314
f 1/138/315 18/125/316 2/139/317
f 2/139/318 18/125/319 3/140/320
f 3/140/321 18/125/322 4/141/323
f 18/125/324 9/142/325 4/141/326
f 4/141/327 9/142/328 5/143/329
f 5/143/330 9/142/331 6/144/332
f 9/142/333 8/145/334 6/144/335
f 8/145/336 7/146/337 6/144/338
